<?xml version="1.0" standalone="no"?>
<!DOCTYPE svg PUBLIC "-//W3C//DTD SVG 20010904//EN"
 "http://www.w3.org/TR/2001/REC-SVG-20010904/DTD/svg10.dtd">
<svg version="1.0" xmlns="http://www.w3.org/2000/svg"
 width="235.000000pt" height="235.000000pt" viewBox="0 0 235.000000 235.000000"
 preserveAspectRatio="xMidYMid meet">
<metadata>
Created by potrace 1.14, written by Peter Selinger 2001-2017
</metadata>
<g transform="translate(0.000000,235.000000) scale(0.100000,-0.100000)"
fill="#000000" stroke="none">
<path d="M437 1579 c-46 -9 -157 -53 -157 -62 0 -2 30 4 68 15 37 11 103 20
147 21 103 2 160 -24 225 -106 38 -48 50 -57 78 -57 17 0 32 5 32 10 0 16 -44
82 -71 107 -68 62 -212 95 -322 72z"/>
<path d="M1500 1370 c0 -6 -110 -10 -310 -10 l-309 0 -11 -42 c-6 -24 -13 -49
-16 -57 -2 -8 3 -24 11 -38 l16 -23 351 2 352 3 7 28 c7 24 1 37 -38 88 -48
61 -53 66 -53 49z m-381 -57 c-1 -10 -4 -31 -8 -47 -6 -28 -7 -28 -88 -30 -46
-1 -83 0 -83 4 0 6 159 88 173 89 4 1 6 -7 6 -16z m175 -10 c-10 -43 -11 -43
-80 -43 -50 0 -64 -3 -64 -15 0 -8 -7 -15 -15 -15 -18 0 -19 12 -4 63 l10 37
80 0 79 0 -6 -27z m37 -4 c-3 -22 -21 -43 -29 -34 -2 2 -1 18 3 35 8 36 32 35
26 -1z m139 21 c0 -6 -14 -19 -30 -29 l-31 -18 23 -15 c33 -22 14 -34 -24 -16
-29 13 -36 13 -70 0 -21 -8 -41 -12 -45 -9 -9 9 -9 9 82 55 87 44 95 47 95 32z"/>
<path d="M1064 1275 c-17 -13 -17 -14 -2 -15 9 0 20 5 23 11 11 17 0 20 -21 4z"/>
<path d="M1183 1293 c15 -2 39 -2 55 0 15 2 2 4 -28 4 -30 0 -43 -2 -27 -4z"/>
<path d="M25 1321 c-6 -38 -3 -45 56 -120 34 -45 64 -81 67 -81 2 0 2 9 -1 20
-5 18 0 20 39 20 39 0 44 3 50 28 3 15 10 43 15 62 13 52 11 68 -11 90 -17 17
-33 20 -114 20 l-94 0 -7 -39z"/>
<path d="M393 1350 c-68 -16 -73 -25 -129 -253 -25 -100 -47 -190 -50 -199 -4
-15 1 -18 36 -18 36 0 49 8 122 73 82 73 87 81 102 170 l7 37 55 0 c52 0 55
-1 49 -21 -5 -15 33 11 114 76 67 54 121 102 121 106 0 4 3 14 6 23 5 14 -16
16 -197 15 -112 -1 -219 -5 -236 -9z"/>
<path d="M820 1140 c0 -17 7 -20 46 -20 38 0 45 -3 40 -16 -3 -9 -9 -34 -12
-56 -6 -35 -5 -40 11 -37 18 4 26 21 39 82 6 25 10 27 55 27 45 0 61 10 61 36
0 2 -54 4 -120 4 -113 0 -120 -1 -120 -20z"/>
<path d="M1076 1144 c-3 -9 -6 -18 -6 -20 0 -2 46 -5 103 -6 l102 -2 -105 -5
c-89 -5 -105 -9 -108 -23 -3 -16 8 -18 117 -18 66 0 122 3 125 8 2 4 7 24 11
45 l7 37 -120 0 c-100 0 -121 -3 -126 -16z"/>
<path d="M1340 1142 c0 -27 36 -45 61 -31 21 11 21 11 -7 30 -36 24 -54 24
-54 1z"/>
<path d="M1425 1108 c-55 -28 -103 -56 -107 -62 -12 -18 -9 -39 5 -33 6 3 35
15 63 27 l50 22 43 -26 c68 -43 101 -17 35 28 l-36 24 46 21 c49 21 63 51 24
50 -13 0 -68 -23 -123 -51z"/>
<path d="M1576 1091 c-20 -87 -20 -83 7 -79 16 2 23 11 25 31 3 27 4 27 83 27
l79 0 0 -31 c0 -48 31 -34 45 21 28 110 28 102 3 98 -15 -2 -24 -11 -26 -25
-3 -22 -8 -23 -86 -23 l-83 0 5 25 c3 20 0 25 -16 25 -17 0 -23 -11 -36 -69z"/>
<path d="M1843 1110 c-6 -27 -7 -50 -3 -50 19 0 41 30 47 63 5 32 3 37 -14 37
-16 0 -22 -10 -30 -50z"/>
<path d="M1948 1100 c-122 -62 -140 -76 -112 -87 10 -4 53 12 110 40 52 26 96
47 98 47 2 0 0 -17 -5 -37 -12 -52 -11 -53 9 -53 14 0 22 12 31 53 6 28 14 62
17 75 10 35 -18 28 -148 -38z"/>
<path d="M2116 1152 c-3 -5 -8 -29 -12 -53 -7 -42 -6 -43 12 -29 10 8 21 15
22 16 2 1 7 19 12 38 7 31 5 36 -10 36 -11 0 -21 -4 -24 -8z"/>
<path d="M2208 1099 c-71 -36 -118 -65 -118 -74 0 -20 9 -19 71 10 l53 24 44
-25 c42 -25 72 -26 72 -4 0 6 -13 19 -30 28 -16 9 -30 20 -30 23 0 3 18 14 40
24 26 12 40 25 40 37 0 10 -6 18 -12 17 -7 0 -66 -27 -130 -60z"/>
<path d="M1 1039 c-3 -92 77 -208 171 -249 75 -32 187 -32 288 0 92 29 209
106 256 168 l36 47 -43 3 c-37 3 -46 -1 -83 -36 -91 -88 -222 -143 -341 -144
-139 0 -216 55 -267 192 -13 36 -17 40 -17 19z"/>
<path d="M1050 1030 c0 -19 7 -20 119 -20 110 0 119 1 124 20 5 19 0 20 -119
20 -117 0 -124 -1 -124 -20z"/>
<path d="M1274 954 c3 -8 2 -13 -3 -10 -5 3 -11 0 -14 -7 -3 -7 4 -13 18 -13
18 -1 21 3 17 22 -2 13 -9 24 -14 24 -6 0 -7 -7 -4 -16z"/>
<path d="M1315 962 c-3 -3 -5 -15 -5 -26 0 -16 2 -18 9 -7 7 11 10 10 13 -5 3
-13 6 -10 9 12 3 21 1 31 -8 31 -7 0 -15 -3 -18 -5z"/>
<path d="M1361 958 c0 -9 -4 -23 -7 -31 -3 -10 3 -16 20 -19 21 -4 25 -1 28
29 5 40 1 42 -14 6 l-11 -28 -7 30 c-4 17 -8 22 -9 13z"/>
<path d="M1417 956 c-4 -10 -7 -25 -7 -34 1 -16 2 -15 14 1 7 9 18 17 25 17 6
0 11 7 11 16 0 13 -3 14 -14 5 -11 -9 -15 -9 -18 1 -3 8 -7 6 -11 -6z"/>
<path d="M1471 952 c-6 -11 -6 -24 -1 -33 8 -11 13 -12 30 -1 16 10 20 10 20
0 0 -8 5 -5 11 5 5 9 15 17 20 17 6 0 7 -4 4 -10 -3 -5 -2 -10 3 -10 5 0 12
11 14 25 4 21 3 23 -9 13 -11 -9 -16 -9 -23 2 -6 10 -9 7 -13 -11 -4 -23 -4
-23 -6 -1 -1 27 -36 30 -50 4z m39 -1 c0 -12 -26 -32 -33 -25 -9 10 4 34 19
34 8 0 14 -4 14 -9z"/>
<path d="M1586 954 c-11 -28 -6 -44 12 -43 10 0 12 3 5 6 -19 7 -16 23 5 23
13 0 14 2 3 9 -11 7 -11 9 0 14 10 4 10 6 -2 6 -9 1 -20 -6 -23 -15z"/>
<path d="M1635 949 c-4 -11 -4 -23 -1 -26 3 -4 6 -2 6 4 0 6 9 13 20 16 26 7
26 27 1 27 -11 0 -23 -9 -26 -21z"/>
<path d="M1685 951 c-4 -13 -4 -25 -1 -28 3 -4 6 -1 6 5 0 19 20 14 21 -5 0
-15 2 -15 9 2 5 11 9 27 9 35 1 13 0 13 -9 0 -8 -13 -11 -13 -19 -1 -7 11 -10
9 -16 -8z"/>
<path d="M1747 963 c-12 -12 -7 -53 6 -53 19 0 37 21 37 42 0 18 -29 25 -43
11z m31 -20 c-5 -25 -28 -28 -28 -4 0 12 6 21 16 21 9 0 14 -7 12 -17z"/>
<path d="M1800 956 c0 -8 -3 -21 -6 -30 -5 -12 0 -16 17 -15 13 0 18 3 12 6
-18 7 -16 21 5 26 14 4 14 5 -3 7 l-20 1 20 9 c19 8 19 9 -2 9 -14 1 -23 -5
-23 -13z"/>
<path d="M1877 963 c-4 -3 -7 -17 -7 -30 0 -24 23 -32 35 -13 5 8 11 7 21 -1
7 -6 21 -9 29 -5 21 8 19 36 -2 37 -15 0 -15 2 2 9 18 8 18 9 2 9 -10 1 -22
-9 -27 -21 l-9 -23 0 23 c-1 21 -28 31 -44 15z m31 -20 c-5 -25 -28 -28 -28
-4 0 12 6 21 16 21 9 0 14 -7 12 -17z m52 -7 c0 -3 -4 -8 -10 -11 -5 -3 -10
-1 -10 4 0 6 5 11 10 11 6 0 10 -2 10 -4z"/>
<path d="M1986 954 c-13 -33 -6 -44 27 -44 30 0 33 3 34 33 1 17 -1 23 -4 12
-8 -33 -26 -44 -21 -13 3 15 1 25 -3 22 -5 -3 -9 -14 -9 -25 0 -10 -5 -19 -11
-19 -7 0 -9 10 -5 25 7 28 2 34 -8 9z"/>
<path d="M2067 963 c-4 -3 -7 -17 -7 -30 0 -16 6 -23 18 -22 10 0 12 3 5 6
-19 7 -16 23 5 23 13 0 14 2 3 9 -11 7 -11 9 0 14 11 4 10 6 -2 6 -9 1 -19 -2
-22 -6z"/>
<path d="M2115 949 c-9 -27 10 -48 28 -30 10 10 9 11 -5 6 -27 -11 -23 24 5
35 l22 9 -22 0 c-14 1 -24 -7 -28 -20z"/>
<path d="M2174 937 c-1 -31 -1 -31 10 -7 6 14 15 28 21 32 5 4 1 8 -10 8 -16
0 -20 -7 -21 -33z"/>
<path d="M2216 954 c-10 -27 -7 -44 9 -44 21 0 31 30 14 42 -11 8 -10 9 4 4 9
-3 17 -1 17 4 0 16 -37 11 -44 -6z m24 -24 c0 -5 -4 -10 -10 -10 -5 0 -10 5
-10 10 0 6 5 10 10 10 6 0 10 -4 10 -10z"/>
<path d="M2265 949 c-8 -25 6 -42 28 -34 21 9 30 36 17 49 -8 8 -9 7 -5 -5 7
-19 -20 -46 -30 -29 -4 6 -1 17 5 25 8 10 9 15 2 15 -6 0 -14 -9 -17 -21z"/>
</g>
</svg>
