<svg width="70" height="49" viewBox="0 0 70 49" fill="none" xmlns="http://www.w3.org/2000/svg">
<symbol id="airplane"><path fill-rule="evenodd" clip-rule="evenodd" d="M61.743 0.0885596C60.7815 0.209139 59.4875 0.546682 58.5966 0.90949C58.0707 1.12365 53.5594 3.17149 48.5714 5.46037C43.5836 7.74924 39.417 9.62197 39.3127 9.62197C39.2084 9.62197 34.4712 7.84349 28.7856 5.66984C23.0569 3.47976 18.0093 1.62669 17.4633 1.51359C15.5633 1.11964 13.7455 1.51653 12.8089 2.52996C11.7909 3.63149 11.1786 5.66704 11.6216 6.47647C11.7146 6.64625 14.8613 8.84863 18.6142 11.3706C22.3672 13.8927 25.3912 15.9999 25.3342 16.0532C25.1269 16.2472 17.9046 19.5143 17.6832 19.5143C17.558 19.5143 14.5415 18.7918 10.9799 17.9087C6.99877 16.9216 4.37917 16.3337 4.17965 16.3826C4.00105 16.4264 3.7333 16.5926 3.58451 16.7518C3.18506 17.1796 0 22.8725 0 23.1588C0 23.2938 0.089982 23.5743 0.199793 23.7821C0.416816 24.1923 0.470559 24.2165 6.93737 26.8086C8.75971 27.539 10.2521 28.1749 10.2536 28.2216C10.2551 28.2682 9.78821 28.5075 9.21618 28.7532C8.09647 29.2342 7.65804 29.6395 7.65804 30.1936C7.65804 30.6284 10.4155 36.4225 10.8253 36.8488C11.0106 37.0415 11.2818 37.1601 11.5378 37.1601C11.795 37.1601 15.8941 35.3588 22.3862 32.3928C28.1255 29.7707 32.8419 27.6502 32.8671 27.6806C32.8923 27.7108 32.4827 32.1155 31.957 37.4688L31.0011 47.2019L31.2722 47.5616C31.6927 48.1195 32.8685 48.7436 33.8345 48.9218C35.9709 49.3159 37.7897 48.2111 38.9611 45.8073C39.1828 45.3526 41.241 39.5458 43.5349 32.9035C45.8287 26.2612 47.7256 20.8115 47.7499 20.7934C47.7744 20.775 51.523 19.0638 56.0803 16.9904C60.6375 14.917 64.7605 12.9974 65.2426 12.7247C65.7246 12.4518 66.6779 11.6873 67.361 11.0256C68.3736 10.0447 68.7085 9.61261 69.1746 8.68621C70.4711 6.10832 70.2401 3.89604 68.4827 2.05954C66.9296 0.436663 64.5397 -0.262351 61.743 0.0885596ZM64.9614 2.66979C65.7104 2.87299 66.6846 3.53858 67.0734 4.11287C68.2262 5.81569 67.0514 8.60266 64.4482 10.3406C63.57 10.9268 48.9899 17.7198 48.8672 17.5997C48.8357 17.569 48.9968 17.0432 49.2252 16.4314C49.7726 14.9653 49.7714 14.4322 49.2197 13.9785C48.4384 13.3357 47.6189 13.6433 47.209 14.7334C47.0635 15.1204 44.7477 21.8311 42.0629 29.6462C39.3782 37.4613 37.067 44.1167 36.9269 44.4362C36.514 45.3778 35.9861 46.1083 35.5162 46.3885C34.7374 46.8526 33.4481 46.6374 33.5672 46.0629C33.5993 45.9087 34.1644 40.1735 34.8232 33.318L36.0207 20.8537L35.7454 20.4931C35.1649 19.733 34.0576 19.8146 33.7032 20.6436C33.6057 20.8718 33.4495 21.9104 33.3562 22.9516L33.1865 24.8447L22.7522 29.5987C17.0133 32.2135 12.2693 34.3509 12.2101 34.3487C12.1034 34.3447 10.5298 31.118 10.5298 30.9033C10.5298 30.842 11.3645 30.4095 12.3847 29.9423C14.29 29.0696 14.6323 28.784 14.6323 28.0662C14.6323 27.4398 13.959 27.091 8.44436 24.8615C5.45458 23.6529 3.00852 22.6263 3.00852 22.5803C3.00852 22.4668 4.88296 19.2326 5.03475 19.0843C5.10477 19.0158 7.851 19.6154 11.5542 20.5074L17.9529 22.0486L18.8567 21.6708C19.3538 21.4631 28.719 17.1991 39.6684 12.1954C50.6177 7.1918 59.8775 2.99784 60.2457 2.87566C61.6275 2.417 63.6963 2.32677 64.9614 2.66979ZM17.1361 3.92692C17.9874 4.12276 36.0981 10.9744 36.1007 11.1015C36.1026 11.1987 28.3395 14.7463 28.1251 14.7463C27.9486 14.7463 14.1354 5.53149 14.0066 5.32789C13.8542 5.08686 14.4432 4.20925 14.9153 3.97424C15.4772 3.69432 16.0697 3.68162 17.1361 3.92692Z" fill="black"/></symbol>
</svg>
