<svg width="18" height="19" viewBox="0 0 18 19" fill="none" xmlns="http://www.w3.org/2000/svg">
<path d="M1.72954 0.816059C1.35181 0.413147 0.718971 0.392733 0.316059 0.770463C-0.0868534 1.14819 -0.107267 1.78103 0.270463 2.18394L1.72954 0.816059ZM15.9678 18.4995C16.5198 18.5173 16.9817 18.0842 16.9995 17.5322L17.2897 8.53692C17.3075 7.98492 16.8744 7.52301 16.3224 7.5052C15.7704 7.48739 15.3085 7.92044 15.2907 8.47244L15.0328 16.4683L7.03692 16.2103C6.48492 16.1925 6.02301 16.6256 6.0052 17.1776C5.98739 17.7296 6.42044 18.1915 6.97244 18.2093L15.9678 18.4995ZM0.270463 2.18394L15.2705 18.1839L16.7295 16.8161L1.72954 0.816059L0.270463 2.18394Z" fill="#EF476F"/>
</svg>
