<svg width="1440" height="854" viewBox="0 0 1440 854" fill="none" xmlns="http://www.w3.org/2000/svg">
<path d="M1109.88 30.9507C1225.83 -8.2997 1409.57 27.5923 1488.25 50.2483C1566.42 82.2068 1518.2 118.454 1538.49 151.583C1563.86 192.994 1446.87 386.995 1342.82 389.696C1238.77 392.397 1280.16 534.025 1191.66 614.756C1109.88 689.372 1038.41 635.854 939.568 754.293C822.051 895.107 426.78 871.112 328.22 779.049C209.133 667.812 337.538 535.085 182.76 521.581C27.9821 508.077 3.13489 305.074 0.0289751 178.59C-3.07694 52.1063 244.441 20.7614 296.644 8.89486C348.381 -2.86574 470.029 -9.16739 577.211 30.9507C712.356 81.535 964.933 80.0137 1109.88 30.9507Z" fill="#06D6A0" fill-opacity="0.05"/>
<path d="M1293.2 76.399C1395.92 41.6527 1558.68 73.426 1628.39 93.4821C1697.63 121.773 1654.92 153.861 1672.89 183.188C1695.36 219.847 1591.73 391.586 1499.55 393.977C1407.38 396.368 1444.04 521.743 1365.65 593.21C1293.2 659.264 1229.89 611.887 1142.33 716.735C1038.22 841.39 688.069 820.148 600.758 738.65C495.263 640.178 609.012 522.681 471.9 510.727C334.788 498.773 312.777 319.065 310.026 207.096C307.274 95.1269 526.541 67.379 572.786 56.8741C618.618 46.4631 726.381 40.8846 821.33 76.399C941.05 121.179 1164.8 119.832 1293.2 76.399Z" fill="#06D6A0" fill-opacity="0.07"/>
</svg>
