<svg width="772" height="593" viewBox="0 0 772 593" fill="none" xmlns="http://www.w3.org/2000/svg">
<path d="M99.1092 5.72584C-46.0175 -14.7717 -225.497 24.6637 -297.096 46.9436C-407.276 73.6147 -342.726 288.123 -313.233 473.047C-283.741 657.97 35.6719 540.443 154.199 573.863C272.727 607.283 362.875 508.694 420.191 504.795C477.507 500.896 638.883 601.713 715.675 591.687C792.468 581.661 783.008 483.073 733.482 451.881C683.957 420.689 686.182 260.274 715.675 224.626C745.168 188.978 674.497 112.112 627.197 59.1976C579.897 6.28281 448.014 143.861 382.908 112.112C317.801 80.3634 280.518 31.3477 99.1092 5.72584Z" fill="#FFD166" fill-opacity="0.1"/>
<path d="M401.507 556.19C513.414 571.655 651.809 541.901 707.018 525.091C791.977 504.968 742.203 343.122 719.462 203.599C696.72 64.075 450.423 152.748 359.028 127.533C267.632 102.318 198.12 176.702 153.924 179.644C109.728 182.586 -14.708 106.52 -73.9222 114.085C-133.136 121.649 -125.842 196.034 -87.653 219.568C-49.4641 243.102 -51.1805 364.135 -73.9222 391.031C-96.6638 417.927 -42.1696 475.922 -5.69714 515.846C30.7753 555.769 132.469 451.967 182.672 475.922C232.876 499.876 261.625 536.858 401.507 556.19Z" fill="#FFD166" fill-opacity="0.15"/>
</svg>
