<svg width="1314" height="623" viewBox="0 0 1314 623" fill="none" xmlns="http://www.w3.org/2000/svg">
<path d="M118.576 597.53C-0.987671 626.026 -190.446 599.968 -271.579 583.52C-352.177 560.318 -302.459 534.003 -323.382 509.952C-349.537 479.887 -228.906 339.043 -121.619 337.083C-14.3317 335.122 -57.0046 232.3 34.241 173.69C118.576 119.519 192.264 158.373 294.185 72.387C415.36 -29.8435 822.935 -12.423 924.563 54.4138C1047.36 135.171 914.955 231.531 1074.55 241.335C1234.15 251.138 1259.77 398.518 1262.97 490.345C1266.17 582.171 1010.95 604.927 957.122 613.542C903.774 622.081 778.34 626.655 667.821 597.53C528.469 560.806 268.03 561.91 118.576 597.53Z" fill="#94B92A" fill-opacity="0.1"/>
<path d="M901.492 69.8029C1012.18 43.4215 1187.58 67.5457 1262.69 82.7735C1337.31 104.254 1291.28 128.617 1310.65 150.883C1334.86 178.717 1223.19 309.112 1123.86 310.927C1024.54 312.742 1064.04 407.935 979.568 462.196C901.492 512.348 833.272 476.377 738.916 555.984C626.733 650.629 249.406 634.501 155.321 572.623C41.6389 497.857 164.215 408.647 16.4636 399.571C-131.288 390.495 -155.007 254.049 -157.972 169.036C-160.937 84.0223 75.344 62.9544 125.178 54.9785C174.566 47.0738 290.692 42.8383 393.009 69.8029C522.018 103.802 763.129 102.78 901.492 69.8029Z" fill="#94B92A" fill-opacity="0.07"/>
</svg>
