<svg width="95" height="160" viewBox="0 0 95 160" fill="none" xmlns="http://www.w3.org/2000/svg">
<path fill-rule="evenodd" clip-rule="evenodd" d="M5.5 98C8.53757 98 11 95.5376 11 92.5C11 89.4624 8.53757 87 5.5 87C2.46243 87 0 89.4624 0 92.5C0 95.5376 2.46243 98 5.5 98ZM5.5 129C8.53757 129 11 126.538 11 123.5C11 120.462 8.53757 118 5.5 118C2.46243 118 0 120.462 0 123.5C0 126.538 2.46243 129 5.5 129ZM11 154.5C11 157.538 8.53757 160 5.5 160C2.46243 160 0 157.538 0 154.5C0 151.462 2.46243 149 5.5 149C8.53757 149 11 151.462 11 154.5ZM34.5 98C37.5376 98 40 95.5376 40 92.5C40 89.4624 37.5376 87 34.5 87C31.4624 87 29 89.4624 29 92.5C29 95.5376 31.4624 98 34.5 98ZM40 123.5C40 126.538 37.5376 129 34.5 129C31.4624 129 29 126.538 29 123.5C29 120.462 31.4624 118 34.5 118C37.5376 118 40 120.462 40 123.5ZM34.5 160C37.5376 160 40 157.538 40 154.5C40 151.462 37.5376 149 34.5 149C31.4624 149 29 151.462 29 154.5C29 157.538 31.4624 160 34.5 160ZM69 92.5C69 95.5376 66.5376 98 63.5 98C60.4624 98 58 95.5376 58 92.5C58 89.4624 60.4624 87 63.5 87C66.5376 87 69 89.4624 69 92.5ZM63.5 129C66.5376 129 69 126.538 69 123.5C69 120.462 66.5376 118 63.5 118C60.4624 118 58 120.462 58 123.5C58 126.538 60.4624 129 63.5 129ZM69 154.5C69 157.538 66.5376 160 63.5 160C60.4624 160 58 157.538 58 154.5C58 151.462 60.4624 149 63.5 149C66.5376 149 69 151.462 69 154.5ZM92.5 98C95.5376 98 98 95.5376 98 92.5C98 89.4624 95.5376 87 92.5 87C89.4624 87 87 89.4624 87 92.5C87 95.5376 89.4624 98 92.5 98ZM98 123.5C98 126.538 95.5376 129 92.5 129C89.4624 129 87 126.538 87 123.5C87 120.462 89.4624 118 92.5 118C95.5376 118 98 120.462 98 123.5ZM92.5 160C95.5376 160 98 157.538 98 154.5C98 151.462 95.5376 149 92.5 149C89.4624 149 87 151.462 87 154.5C87 157.538 89.4624 160 92.5 160Z" fill="#FFD166"/>
<path fill-rule="evenodd" clip-rule="evenodd" d="M95 117C125.928 117 151 91.9279 151 61C151 30.0721 125.928 5 95 5C64.0721 5 39 30.0721 39 61C39 91.9279 64.0721 117 95 117ZM95 122C128.689 122 156 94.6894 156 61C156 27.3106 128.689 0 95 0C61.3106 0 34 27.3106 34 61C34 94.6894 61.3106 122 95 122Z" fill="#EF476F"/>
</svg>
