<svg width="56" height="48" viewBox="0 0 56 48" fill="none" xmlns="http://www.w3.org/2000/svg"><symbol id="brush-green">
<path fill-rule="evenodd" clip-rule="evenodd" d="M23.4361 0.0703931C23.359 0.119949 22.6262 1.52512 21.8079 3.19318C20.0626 6.75023 19.0814 8.47697 17.1203 11.4424C15.2618 14.2527 15.4599 14.0215 15.039 13.8731C14.8443 13.8045 14.4123 13.7762 14.0566 13.8088C12.6376 13.9389 11.5953 15.1079 11.5953 16.5694C11.5953 17.0371 11.5641 17.0811 10.467 18.1628C9.49028 19.1259 9.33877 19.3228 9.33877 19.6292C9.33877 19.8603 9.43043 20.076 9.60257 20.25C10.0736 20.7265 10.3402 20.6106 11.5277 19.4134C11.9929 18.9444 12.404 18.5606 12.4414 18.5606C12.4787 18.5606 16.2723 22.3669 20.8718 27.0189L29.2345 35.4771L27.8132 36.8551C26.0341 38.5801 25.3996 38.9413 24.1693 38.9295C23.1107 38.9194 22.6479 38.6896 21.3297 37.5195C20.7636 37.0171 20.1189 36.5126 19.8968 36.3986C18.4835 35.6726 16.7099 35.9889 15.6151 37.1622C15.3734 37.4212 14.8914 38.0977 14.544 38.6656C13.6628 40.1063 12.2347 42.1499 11.4126 43.1471C9.51424 45.4496 7.63058 46.4575 5.40576 46.361C4.57096 46.3248 4.32489 46.2673 3.72498 45.9687C2.46595 45.3417 1.74332 44.2288 1.63243 42.7455C1.55034 41.6483 1.73838 40.7616 2.3053 39.5717C2.67731 38.791 2.97065 38.3719 3.66448 37.6306C4.68561 36.5397 6.67618 34.9939 8.90896 33.558C10.7784 32.3559 11.0753 32.0844 11.521 31.1693C11.8202 30.5549 11.8639 30.3541 11.8639 29.5935C11.8639 28.8361 11.8193 28.6292 11.5238 28.0154C11.3212 27.5945 10.8547 26.9457 10.3698 26.4101C9.15137 25.0647 9.07046 24.8684 9.06863 23.2509C9.06691 21.7369 8.98235 21.5639 8.27487 21.6258C7.66895 21.679 7.46543 22.075 7.42137 23.2871C7.35808 25.0274 7.6957 25.8429 9.17695 27.5287C10.1595 28.647 10.3665 29.0881 10.2637 29.8457C10.1524 30.6674 9.80275 31.0634 8.42552 31.9276C6.08777 33.3947 3.76076 35.1613 2.58801 36.3596C0.574121 38.417 -0.400373 41.3772 0.153656 43.7542C0.411115 44.8584 0.81976 45.6065 1.59396 46.3912C2.80163 47.6149 4.08978 48.0796 6.0233 47.989C7.9811 47.8973 9.78771 47.0817 11.357 45.5812C12.6507 44.3441 14.3168 42.1376 15.8405 39.6436C16.7726 38.1181 17.0958 37.8077 17.9175 37.6495C18.6346 37.5114 19.1452 37.7558 20.3224 38.8007C21.9437 40.2395 23.1546 40.7317 24.687 40.5748C26.1746 40.4225 27.0155 39.8987 29.1516 37.7936C30.6575 36.3095 30.7035 36.2747 31.1641 36.2741C31.9139 36.2732 32.3853 36.0871 32.9579 35.5665C33.7452 34.8505 34.0032 34.0152 33.7971 32.8483L33.7198 32.4104L35.0415 31.4743C37.661 29.6191 40.6885 27.8091 43.8518 26.2071C45.0745 25.5878 46.1021 25.0812 46.1352 25.0812C46.1682 25.0812 46.1942 25.4846 46.1929 25.9777C46.1895 27.3234 45.818 28.7907 44.8458 31.2994C44.6041 31.9231 44.7081 32.344 45.1581 32.5621C45.8699 32.9072 46.3036 32.2935 47.1157 29.7918C47.6689 28.0875 47.8389 26.982 47.7814 25.4615C47.7344 24.22 47.7077 24.0948 47.2261 22.8533C45.498 18.3987 42.3515 13.4328 39.1176 10.0568C38.7884 9.71315 38.5696 9.4319 38.6314 9.4319C38.7911 9.4319 41.1437 10.319 42.1658 10.7646C44.9549 11.9806 46.7829 13.3532 47.4504 14.7331C47.7752 15.4045 47.9022 16.619 47.7182 17.2932C47.5621 17.865 47.6691 18.0826 48.5065 18.8956C49.8832 20.2322 51.3012 22.3634 52.0439 24.2117C52.8628 26.2503 53.261 28.1236 53.3605 30.4062C53.5143 33.9324 52.7692 36.6325 51.169 38.348C48.3327 41.3889 43.9851 39.8353 44.6845 36.0311C44.9587 34.5394 44.9571 34.4837 44.6325 34.2255C43.7794 33.5469 43.1873 34.3187 43.0104 36.3398C42.7407 39.4221 45.1457 41.8296 48.233 41.5678C50.2415 41.3976 52.0225 40.2341 53.297 38.2594C54.9474 35.7026 55.4467 31.3502 54.5815 27.063C53.9177 23.7742 52.1729 20.357 50.0327 18.1544L49.3739 17.4765L49.4053 16.5561C49.4609 14.9314 48.9013 13.5857 47.6417 12.3144C45.9486 10.6056 43.7261 9.46614 38.5124 7.63387C37.2713 7.19776 36.0624 6.76968 35.826 6.68264C35.5896 6.59559 34.7918 6.06449 34.053 5.50253C32.199 4.09203 30.3499 2.92605 28.1968 1.81018C25.3427 0.330779 23.8695 -0.207598 23.4361 0.0703931ZM26.0136 2.53841C26.704 2.85639 27.886 3.46595 28.6403 3.89294C35.6474 7.85981 41.1509 13.7473 44.6369 21.0058C45.6271 23.0676 45.7708 23.4665 45.5506 23.541C45.4619 23.571 44.2289 24.1881 42.8105 24.9122C39.4865 26.6093 35.9739 28.7502 33.2917 30.7139L32.6916 31.1533L31.7874 30.2318C30.8896 29.317 30.8848 29.3091 31.1102 29.1247C31.9408 28.4455 34.2345 26.655 34.8744 26.1862C35.2967 25.8769 35.6714 25.5466 35.7072 25.4523C35.9183 24.896 35.5616 24.3204 35.0058 24.3204C34.6336 24.3204 33.7618 24.925 31.2698 26.911L29.7224 28.1443L28.4223 26.8264L27.1223 25.5084L27.662 24.9958C27.9588 24.714 28.6721 24.0417 29.247 23.5018C30.1512 22.6525 30.2922 22.4729 30.2922 22.1705C30.2922 21.7104 29.966 21.3862 29.5029 21.3862C29.1905 21.3862 28.9364 21.5796 27.5575 22.8685L25.9715 24.3507L24.6976 23.0587L23.4239 21.7666L24.8213 20.2451C25.5899 19.4083 26.2671 18.6046 26.3262 18.4591C26.549 17.9101 25.9293 17.2334 25.3683 17.4135C25.252 17.4508 24.611 18.0788 23.9442 18.809C23.2773 19.539 22.6306 20.2463 22.5073 20.3805L22.2828 20.6246L20.9677 19.2913L19.6526 17.958L20.228 17.254C21.2487 16.0056 23.3293 13.1891 23.4324 12.9167C23.6444 12.3557 23.0224 11.6928 22.4549 11.8749C22.3317 11.9145 21.644 12.7306 20.9265 13.6887C20.2092 14.6468 19.3713 15.7403 19.0645 16.1188L18.5067 16.807L17.6043 15.8895C16.9107 15.1844 16.7264 14.936 16.8081 14.8159C16.8664 14.73 17.2842 14.1315 17.7365 13.4858C19.5994 10.8258 21.3906 7.74765 23.1166 4.24059C24.1912 2.05676 24.3295 1.82735 24.5329 1.89038C24.6569 1.92874 25.3232 2.22043 26.0136 2.53841ZM23.4849 24.2286C28.2824 29.0793 32.227 33.1505 32.2507 33.2758C32.3868 33.9955 31.8468 34.6446 31.112 34.6446C30.6716 34.6446 30.6684 34.6414 22.0933 25.9777C17.3753 21.2109 13.4459 17.1788 13.3611 17.0174C13.1593 16.6328 13.1666 16.327 13.3865 15.9504C13.6037 15.5786 13.8894 15.4262 14.3876 15.4164C14.7434 15.4094 15.197 15.8487 23.4849 24.2286ZM4.91578 39.9835C4.69936 40.045 4.31812 40.2722 4.0685 40.4884C2.72835 41.6485 2.97839 43.7329 4.5571 44.5625C5.80646 45.219 7.46994 44.513 7.92705 43.1322C8.53953 41.2821 6.78794 39.4506 4.91578 39.9835ZM6.24949 41.8295C6.59323 42.2483 6.47621 42.8219 5.99557 43.0732C5.40512 43.3821 4.82573 42.9941 4.82573 42.2899C4.82573 41.5647 5.77906 41.2565 6.24949 41.8295Z" fill="black"/>
<path fill-rule="evenodd" clip-rule="evenodd" d="M34.1318 6.15845L37.2697 7.03704C39.3675 7.62444 42.6088 8.65477 45.2156 10.2758C47.651 11.7903 49.8655 14.0469 49.5551 17.1731C51.88 19.782 54.1831 23.6505 55.0418 27.7972C55.9488 32.1775 55.246 36.9383 51.1823 40.7311L51.1118 40.7969L51.03 40.848C46.1991 43.8673 41.1952 39.006 43.0809 34.6061C43.2984 34.0985 43.8863 33.8633 44.3939 34.0809C44.9016 34.2984 45.1367 34.8863 44.9192 35.3939C43.8142 37.9721 46.7508 41.0799 49.89 39.2009C53.2628 36.0054 53.879 32.0452 53.0833 28.2028C52.2735 24.2921 50.0039 20.5768 47.769 18.1823L47.4263 17.8152L47.5162 17.3211C47.8998 15.2111 46.5529 13.4626 44.1595 11.9742C42.8503 11.1601 41.3374 10.4987 39.8964 9.97229C44.0586 15.2955 46.3133 19.5962 47.2769 23.1106C48.4055 27.2266 47.761 30.2692 46.348 32.53C46.0553 32.9983 45.4384 33.1407 44.97 32.848C44.5017 32.5553 44.3593 31.9383 44.652 31.47C45.739 29.7308 46.3445 27.2734 45.3481 23.6394C44.34 19.9627 41.6913 15.0924 36.2366 8.64594L34.1318 6.15845Z" fill="#61A120"/>
</symbol></svg>
