<svg width="25" height="26" viewBox="0 0 25 26" fill="none" xmlns="http://www.w3.org/2000/svg">
<path fill-rule="evenodd" clip-rule="evenodd" d="M11.3649 0.0569456C9.77745 0.215833 8.37179 0.634384 6.9377 1.37518C5.66949 2.03028 4.73815 2.72577 3.69179 3.79902C2.68667 4.82995 1.96422 5.87069 1.31922 7.21671C-0.208839 10.4056 -0.4169 14.0243 0.734032 17.3956C1.161 18.6464 2.0166 20.2231 2.80218 21.207C3.97647 22.6777 5.33067 23.7989 6.9377 24.631C8.8447 25.6185 10.8706 26.0767 12.9443 25.9895C14.8066 25.9113 16.4237 25.4831 18.0714 24.632C20.0544 23.6076 21.7031 22.0938 22.9356 20.1657C23.36 19.5017 23.9957 18.1976 24.2567 17.4554C25.111 15.026 25.2344 12.2306 24.5984 9.7175C24.3595 8.77332 24.1477 8.19238 23.6947 7.23835C23.0606 5.90279 22.3919 4.93063 21.3591 3.8425C18.7626 1.10703 15.0234 -0.309287 11.3649 0.0569456ZM8.18914 6.25023C8.3456 6.31078 10.7148 8.74031 10.822 8.95014C10.9903 9.27985 10.956 9.3404 10.0681 10.2788C9.61493 10.7577 9.2078 11.2235 9.16333 11.3138C8.97711 11.6918 9.01581 12.1468 9.26717 12.5356C10.0831 13.7976 12.232 15.9553 13.2224 16.5071C13.4486 16.6332 13.8933 16.6448 14.1552 16.5315C14.2668 16.4832 14.648 16.1319 15.1432 15.621C15.9615 14.7767 16.0877 14.6862 16.3525 14.754C16.5202 14.797 18.9187 17.2671 19.0305 17.512C19.1803 17.8402 19.0142 18.1142 18.2374 18.8202C17.4078 19.5741 16.4843 19.8946 15.5319 19.759C14.2572 19.5776 12.1635 18.4975 10.6477 17.2394C10.0806 16.7686 8.69077 15.3194 8.24177 14.7306C7.22966 13.4033 6.34689 11.7141 6.02629 10.4913C5.8195 9.70262 5.90741 8.877 6.28332 8.07647C6.48713 7.64237 6.57347 7.52661 7.14317 6.92362C7.49152 6.55495 7.8233 6.24378 7.88057 6.2321C7.93779 6.22042 7.9997 6.20777 8.01812 6.20396C8.03654 6.20015 8.1135 6.22097 8.18914 6.25023Z" fill="#2D2AB9"/>
</svg>
