<svg width="40" height="68" viewBox="0 0 40 68" fill="none" xmlns="http://www.w3.org/2000/svg"><symbol id="care-green">
<path fill-rule="evenodd" clip-rule="evenodd" d="M0.313452 34.3669C-0.0264824 34.7134 -0.041492 34.7885 0.0435612 35.7201C0.298304 38.5151 1.44277 42.399 2.90785 45.441C3.95517 47.6154 4.41338 48.3477 8.34972 54.1388L11.1092 58.1985V63.0992V68H12.221H13.3328V62.8198C13.3328 59.1689 13.2853 57.5484 13.1719 57.3302C13.0835 57.1601 11.4972 54.7896 9.64706 52.0625C5.39496 45.795 4.64755 44.4517 3.47446 40.9683C3.07087 39.7698 2.35806 36.8856 2.35501 36.4382C2.35403 36.3001 2.64491 36.2657 3.54867 36.2966L4.74358 36.3375L5.19136 37.825C6.10832 40.8717 7.25849 43.1042 9.86776 46.9023C11.7232 49.6033 12.1353 50.0578 13.1819 50.558L13.9582 50.9292H20.0037C26.0208 50.9292 26.0525 50.9276 26.7578 50.6022C27.6769 50.178 28.3119 49.4941 29.8659 47.2539C32.4733 43.4958 33.727 41.1291 34.6589 38.2055L35.2545 36.3375L36.4516 36.2966L37.6487 36.2558L37.5672 36.7216C36.9721 40.1162 35.6275 43.773 33.9171 46.6477C33.5359 47.2883 31.7505 49.9796 29.9493 52.628L26.6745 57.4437V62.7218V68H27.7863H28.8981V63.075V58.1498L31.9803 53.6187C33.6756 51.1265 35.4066 48.5138 35.827 47.8125C37.9039 44.3493 39.5203 39.5676 39.9541 35.6044C40.0433 34.7889 40.0255 34.7049 39.6918 34.3648L39.334 34H36.718C34.6113 34 34.0438 34.0416 33.8029 34.2136C33.5869 34.3679 33.29 35.1073 32.7362 36.8699C31.65 40.328 30.6884 42.1511 27.6165 46.5773C26.7897 47.7689 26.3668 48.2487 25.955 48.4627C25.0703 48.9229 24.9443 48.772 25.5039 47.9236C27.2724 45.2424 26.9274 41.7442 24.6671 39.437C24.1999 38.9602 23.4917 38.4016 23.0932 38.1957C19.8604 36.5258 15.9528 37.7013 14.1614 40.8826C12.9361 43.0587 13.092 46.0259 14.5398 48.0803L15.0292 48.7746L14.5985 48.6867C13.8452 48.5332 13.4758 48.1613 12.0614 46.1328C9.29921 42.1715 8.22659 40.1043 7.16287 36.6917C6.81071 35.5619 6.47578 34.5674 6.41866 34.4817C6.14793 34.0761 5.63761 34 3.19039 34H0.673399L0.313452 34.3669ZM21.7431 40.0769C22.6462 40.4828 23.661 41.5106 24.0527 42.4161C24.4866 43.419 24.4866 44.981 24.0527 45.9839C23.6637 46.883 22.6535 47.9105 21.7409 48.335C20.7301 48.8052 19.0885 48.7958 18.1275 48.3144C15.0176 46.7565 14.6498 42.4684 17.4571 40.4995C17.8099 40.252 18.3553 39.9637 18.669 39.8591C19.4611 39.5944 20.8955 39.6961 21.7431 40.0769Z" fill="#121212"/>
<path fill-rule="evenodd" clip-rule="evenodd" d="M18.8919 2.26667V4.53333H20.0037H21.1155V2.26667V0H20.0037H18.8919V2.26667ZM6.55407 4.57215L5.83029 5.3193L7.42781 6.94308L9.02534 8.56701L9.82223 7.75483L10.619 6.94252L9.09455 5.38376C8.25611 4.52639 7.50439 3.825 7.42406 3.825C7.34373 3.825 6.95224 4.16117 6.55407 4.57215ZM30.9129 5.38376L29.3885 6.94252L30.1852 7.75469L30.982 8.56687L32.5111 7.01292C33.3522 6.15825 34.0403 5.39183 34.0403 5.30953C34.0403 5.12224 32.7591 3.825 32.5739 3.825C32.4988 3.825 31.7514 4.52639 30.9129 5.38376ZM13.2288 9.28554C9.89602 10.2004 8.22234 13.461 9.16251 17.208C9.70354 19.3644 10.9996 21.5415 13.1715 23.9422C15.1636 26.1442 19.2805 29.4667 20.0168 29.4667C20.7151 29.4667 23.8871 26.9485 26.2576 24.5123C28.7892 21.9106 30.2478 19.588 30.8449 17.208C31.7933 13.4283 30.1013 10.1765 26.719 9.27846C24.688 8.73927 22.2494 9.34235 20.647 10.7801L20.0037 11.3574L19.3604 10.7801C17.7576 9.34207 15.2499 8.73077 13.2288 9.28554ZM16.7057 11.7293C17.5123 12.0929 18.2836 12.8037 18.8491 13.7043C19.6057 14.9091 20.4018 14.9091 21.1583 13.7043C22.0583 12.271 23.2687 11.493 24.7899 11.3699C27.7058 11.1339 29.4909 13.5783 28.6947 16.7167C28.4286 17.766 27.6616 19.2966 26.7992 20.4992C25.6259 22.1357 22.425 25.2213 20.4483 26.6213L19.9896 26.9463L18.643 25.9043C16.9254 24.5755 14.3733 22.063 13.3953 20.7384C11.7575 18.5202 11.0169 16.5746 11.1546 14.8522C11.2955 13.0886 12.2428 11.8817 13.8193 11.4569C14.4701 11.2815 16.0415 11.4298 16.7057 11.7293ZM1.10303 17V18.1333H3.32664H5.55025V17V15.8667H3.32664H1.10303V17ZM34.4572 17V18.1333H36.6808H38.9044V17V15.8667H36.6808H34.4572V17Z" fill="#61A120"/>
</symbol></svg>
