<svg width="73" height="64" viewBox="0 0 73 64" fill="none" xmlns="http://www.w3.org/2000/svg"><symbol id="case-green">
<path fill-rule="evenodd" clip-rule="evenodd" d="M17.3157 0.227078C15.9993 0.544988 14.7986 1.235 13.768 2.26568C12.026 4.00743 11.4997 5.63198 11.4956 9.27962L11.4932 11.5121L7.24569 11.5555C3.15384 11.5973 2.97609 11.6107 2.39543 11.9198C1.45 12.4232 0.830221 13.0439 0.398335 13.92L0 14.7282V20.9157V27.1032L0.384771 27.8298C0.59636 28.2293 1.09421 28.8472 1.49126 29.2027L2.21297 29.8493V37.1587C2.21297 45.1757 2.23467 45.4208 3.07203 46.8791C3.64912 47.884 4.88767 49.0103 5.97131 49.5154C7.24869 50.1109 8.65 50.2424 13.1737 50.1906C16.7318 50.1498 17.0551 50.1253 17.3321 49.8754C17.5339 49.6933 17.6324 49.4323 17.6324 49.0795C17.6324 48.1039 17.6808 48.1136 12.4926 48.0496C7.25426 47.9851 7.02868 47.9466 5.8548 46.9172C5.49345 46.6003 5.02401 46.013 4.81185 45.6121L4.42594 44.8834L4.38511 37.7957L4.34442 30.708L4.67065 30.811C4.85012 30.8676 5.67163 31.2087 6.49614 31.5689L7.99525 32.2238L14.9554 32.2646L21.9155 32.3053L21.9187 33.2603C21.9238 34.8316 22.6385 35.9272 23.8831 36.2715C24.5695 36.4614 27.2568 36.4614 27.9432 36.2715C29.1878 35.9272 29.9025 34.8316 29.9076 33.2603L29.9108 32.3053L36.8709 32.2646L43.8311 32.2238L45.3302 31.5689C47.7031 30.5322 47.4718 30.4731 47.4718 32.1158V33.5203L46.5759 34.1758C45.3703 35.0575 43.4078 37.113 42.5731 38.3676C40.9428 40.8187 40.0817 43.4775 39.8297 46.8392L39.7364 48.0839H29.9915C20.407 48.0839 20.2423 48.0886 19.9864 48.3702C19.6299 48.7626 19.655 49.4509 20.0397 49.8343L20.3529 50.1464L30.1788 50.1856L40.0046 50.225L40.3826 51.6618C41.595 56.2709 44.9518 60.3316 49.2347 62.37C55.4676 65.3365 62.8132 64.1873 67.8041 59.465C72.8738 54.6682 74.3853 47.4294 71.6657 40.9718C70.9144 39.1879 70.4952 38.6349 69.8536 38.5811C69.2338 38.5292 68.7448 38.9263 68.7448 39.4818C68.7448 39.6794 68.9616 40.2714 69.2266 40.7975C71.3711 45.0555 71.4217 49.7467 69.3669 53.8318C68.5811 55.3942 67.9082 56.3181 66.6055 57.6226C65.3264 58.9033 64.2915 59.6504 62.7505 60.405C57.7395 62.8588 51.7798 62.1945 47.3864 58.6924C43.5851 55.6623 41.5294 50.7874 42.0523 46.0428C43.0858 36.6631 52.4721 30.7752 61.3384 33.9449C63.1252 34.5837 64.3649 35.3124 66.0753 36.7294C66.997 37.4931 67.2494 37.5504 67.7975 37.1209C68.0869 36.8941 68.1738 36.7004 68.1738 36.2815C68.1738 35.795 68.0862 35.6619 67.3528 35.0332C62.7403 31.0786 56.4546 29.8993 50.8096 31.9293C50.2504 32.1305 49.7526 32.295 49.7032 32.295C49.6538 32.295 49.6134 31.7463 49.6134 31.0755V29.856L50.3798 29.158C50.8501 28.7299 51.2777 28.1706 51.4862 27.7106C51.8242 26.9658 51.8266 26.9238 51.868 21.1507C51.9151 14.5995 51.8863 14.3542 50.9226 13.1402C50.6161 12.7542 50.0368 12.2651 49.6022 12.0256L48.8281 11.5989L44.5976 11.5556L40.3671 11.5124L40.298 8.85304C40.2411 6.6628 40.1755 6.02883 39.9263 5.25888C39.1222 2.77576 36.9936 0.818945 34.4452 0.220392C33.1777 -0.0774616 18.5525 -0.0716295 17.3157 0.227078ZM34.2037 2.36568C36.1825 2.94219 37.5956 4.47626 38.0311 6.5207C38.1193 6.93534 38.1916 8.23144 38.1916 9.4011V11.5278H37.1328H36.0741L36.0263 9.1452C35.983 6.98583 35.9472 6.69907 35.6428 6.08317C35.4581 5.70936 35.0887 5.23783 34.8222 5.03527C33.9081 4.34071 33.5328 4.28637 29.6054 4.27968C26.2361 4.27385 25.9186 4.29462 25.6149 4.53956C25.3761 4.73216 25.285 4.95334 25.285 5.34024C25.285 5.72714 25.3761 5.94832 25.6149 6.14092C25.9176 6.385 26.2394 6.40705 29.5093 6.40705H33.0738L33.4911 6.82282L33.9084 7.2386V9.38317V11.5278H25.9132H17.9179V9.45586C17.9179 6.44062 17.9376 6.418 20.5756 6.4116C22.2498 6.40748 22.4879 6.37576 22.8243 6.11218C23.3445 5.70452 23.3445 4.97596 22.8243 4.56829C22.4839 4.30145 22.2555 4.27343 20.4251 4.27343C18.5323 4.27343 18.3544 4.29718 17.6564 4.64368C16.1504 5.39145 15.7763 6.34119 15.7763 9.41674V11.5278H14.6898H13.6035L13.666 8.93184C13.7177 6.79295 13.7771 6.21886 14.0037 5.67081C14.659 4.08595 15.8771 2.93066 17.4182 2.43268C18.2216 2.17294 18.7454 2.15531 25.8515 2.14777C32.3692 2.14094 33.5366 2.17138 34.2037 2.36568ZM48.7903 14.017C49.0051 14.1734 49.3103 14.5618 49.4684 14.8798C49.7417 15.429 49.7561 15.7313 49.7561 20.8941C49.7561 26.7165 49.7347 26.9118 49.025 27.5517C48.8381 27.7201 47.4191 28.3761 45.8714 29.0097L43.0575 30.1614H36.4842H29.9108L29.9076 28.8457C29.9041 27.3332 29.6551 26.6105 28.9272 26.0004C28.286 25.4629 27.6447 25.3265 25.7704 25.3292C24.4792 25.3309 24.0066 25.3875 23.5574 25.594C22.3466 26.1508 21.9155 27.0126 21.9155 28.8767V30.1614H15.3339H8.75222L5.94661 29.0097C4.40353 28.3763 2.98822 27.7203 2.80133 27.5517C2.09047 26.9106 2.0702 26.7229 2.07091 20.8136L2.07163 15.2972L2.40928 14.7414C2.59503 14.4357 2.9641 14.07 3.22951 13.9288C3.68966 13.6839 4.75246 13.6732 26.0559 13.7022C48.1499 13.7322 48.4042 13.7356 48.7903 14.017ZM27.4931 27.606C27.7532 27.7447 27.7692 27.9342 27.7692 30.8726C27.7692 34.5393 27.9067 34.2864 25.9132 34.2864C23.9205 34.2864 24.0571 34.5359 24.0571 30.8961C24.0571 28.6778 24.1057 27.7518 24.2285 27.6295C24.4433 27.4154 27.0997 27.3964 27.4931 27.606ZM54.0393 35.0595C52.6741 35.3485 51.8252 35.6602 50.4857 36.3639C44.5802 39.4661 42.1281 46.6347 44.8936 52.7113C47.5372 58.5198 54.3099 61.4637 60.3927 59.4483C62.2334 58.8383 63.6046 58.0119 65.0653 56.6316C67.768 54.0775 69.0497 51.1197 69.0515 47.4318C69.0528 44.912 68.2651 42.3246 66.8908 40.3347C65.2462 37.9531 62.6252 36.1026 59.7253 35.2751C58.3677 34.8878 55.3845 34.7747 54.0393 35.0595ZM58.5783 37.2139C63.3992 38.1993 66.9132 42.5027 66.9124 47.42C66.9121 49.2807 66.6201 50.5206 65.7845 52.2089C65.2348 53.3198 64.8988 53.7778 63.8964 54.7836C61.5204 57.1673 58.5969 58.2223 55.2974 57.8864C47.8246 57.1259 43.5842 48.901 47.2615 42.2993C48.3107 40.4156 50.742 38.3477 52.7612 37.6216C54.5554 36.9762 56.6854 36.827 58.5783 37.2139Z" fill="#121212"/>
<path d="M9.26789 43.9153C8.84586 43.4264 8.83401 43.1147 9.21935 42.6268L9.51517 42.252H12.8379C15.9863 42.252 16.1742 42.267 16.4206 42.5383C16.7771 42.9307 16.752 43.619 16.3674 44.0024C16.0633 44.3052 15.9588 44.3145 12.8333 44.3145H9.61254L9.26789 43.9153Z" fill="#61A120"/>
<path d="M12.2071 19.2088C11.6694 18.6731 11.8997 17.7329 12.6354 17.4594C12.7532 17.4157 18.8018 17.3914 26.0767 17.4053C38.8644 17.4299 39.3138 17.4397 39.6044 17.7017C39.9966 18.0553 40.0041 18.8254 39.6194 19.2088C39.3378 19.4893 39.1435 19.4933 25.9132 19.4933C12.683 19.4933 12.4887 19.4893 12.2071 19.2088Z" fill="#61A120"/>
<path d="M47.3737 48.2015C46.9357 47.7914 46.9441 47.1742 47.3938 46.7263C48.0138 46.1086 49.5454 46.3013 49.8831 47.0395C50.1177 47.5527 50.0798 47.7743 49.6911 48.1615C49.2065 48.6444 47.8716 48.6675 47.3737 48.2015Z" fill="#61A120"/>
<path d="M55.6585 56.4209C55.2124 55.9043 55.1931 54.8315 55.6201 54.2907C55.9909 53.821 56.755 53.7768 57.1802 54.2004C57.5717 54.5904 57.5855 56.0129 57.2025 56.4842C56.8214 56.9531 56.0921 56.9232 55.6585 56.4209Z" fill="#61A120"/>
<path d="M63.1768 48.2261C62.7517 47.8025 62.7961 47.0412 63.2675 46.6718C63.8096 46.247 64.8871 46.2657 65.4042 46.7088C65.8948 47.1293 65.9191 47.8853 65.4539 48.2605C64.9958 48.6302 63.5607 48.6086 63.1768 48.2261Z" fill="#61A120"/>
<path d="M55.9891 40.9561C55.2481 40.6197 55.0546 39.0937 55.6747 38.4761C56.1104 38.042 56.6969 38.0259 57.1354 38.4362C57.4079 38.6913 57.4658 38.8916 57.4658 39.5806C57.4658 40.2776 57.4078 40.4735 57.1152 40.7648C56.7266 41.1521 56.5042 41.1898 55.9891 40.9561Z" fill="#61A120"/>
<path d="M55.3242 44.4048C55.3242 43.2005 55.3661 42.9483 55.6201 42.6267C55.9909 42.1571 56.755 42.1128 57.1802 42.5364C57.4442 42.7994 57.4658 43.0105 57.4658 45.3366C57.4658 47.7235 57.4499 47.8689 57.1554 48.1814C56.982 48.365 56.6775 48.5106 56.4661 48.5106C55.9438 48.5106 53.4531 47.4268 53.1469 47.0662C52.8077 46.667 52.8326 46.108 53.2074 45.7104C53.5679 45.3282 53.986 45.2959 54.7037 45.5946C54.9857 45.712 55.2405 45.808 55.2702 45.808C55.2999 45.808 55.3242 45.1766 55.3242 44.4048Z" fill="#61A120"/>
</symbol></svg>
