<svg width="49" height="49" viewBox="0 0 49 49" fill="none" xmlns="http://www.w3.org/2000/svg">
<symbol id="certificate"><path fill-rule="evenodd" clip-rule="evenodd" d="M11.4614 0.0180275C10.6935 0.0540529 10.431 0.116928 9.86574 0.400431C9.25227 0.70811 9.16859 0.779119 7.37819 2.5118C5.99639 3.84907 1.94174 7.90828 1.58064 8.31588C1.11242 8.84441 0.965087 9.05459 0.731963 9.5265L0.518513 9.9586L0.505341 25.9349C0.490762 43.5918 0.4958 44.2391 0.655466 45.2042C0.735453 45.6877 0.812795 45.8572 1.17175 46.3358C1.71332 47.0579 2.43188 47.5755 3.22922 47.818C3.88322 48.0169 3.46978 48.0126 20.8618 47.9982L36.2289 47.9856L36.6558 47.7878C36.8906 47.679 37.1503 47.5486 37.2328 47.4979C37.8465 47.1209 38.488 46.4701 38.7862 45.9219C39.0694 45.4012 39.26 44.4954 39.26 43.6703C39.26 42.9933 39.1559 42.6443 38.8747 42.3783C38.709 42.2216 38.5777 42.1481 38.3403 42.0791C37.8802 41.9453 37.3039 42.1623 37.0731 42.5562C36.9544 42.7588 36.9174 42.972 36.8893 43.6153C36.8603 44.2797 36.812 44.5451 36.6729 44.8052C36.5717 44.9944 36.1579 45.4074 35.9672 45.5094L35.8181 45.5891L34.2926 45.6174C33.3382 45.635 27.372 45.6417 18.3559 45.6352L3.94481 45.6247L3.70656 45.4857C3.38413 45.2976 3.21985 45.1246 3.02495 44.768L2.86345 44.4724L2.86331 27.7776L2.8632 11.0827L3.01096 11.0678C3.09224 11.0596 4.27326 11.0458 5.63546 11.0371C8.84757 11.0168 9.39054 10.9894 9.822 10.8262C10.1991 10.6836 10.7987 10.1999 11.1128 9.78487C11.3131 9.52014 11.4432 9.24294 11.49 8.98082C11.5492 8.64973 11.5822 7.58104 11.618 4.84455C11.6357 3.49782 11.6562 2.38962 11.6636 2.38188C11.6886 2.35604 33.9347 2.35213 34.879 2.3778L35.8089 2.40305L35.9626 2.48064C36.1996 2.60026 36.5757 2.99327 36.7031 3.25437L36.8061 3.46546L36.836 4.07057C36.8525 4.40338 36.8766 6.56912 36.8897 8.88333C36.9149 13.3549 36.9146 13.3466 37.0486 13.6294C37.1697 13.8851 37.5189 14.1188 37.8637 14.1749C38.3414 14.2527 38.8902 13.9786 39.0848 13.5649C39.2374 13.2406 39.2344 13.323 39.2471 9.09442C39.2638 3.5034 39.2358 3.0045 38.8622 2.22709C38.6926 1.87423 38.5085 1.61429 38.1946 1.2844C37.7308 0.796991 37.3325 0.517795 36.6428 0.196466L36.2289 0.00364555L24.0703 0.000268173C17.3831 -0.00158938 11.7091 0.00640374 11.4614 0.0180275ZM9.20169 7.89227C9.17723 8.39932 9.1713 8.43957 9.11152 8.50321C8.9702 8.65361 8.49334 8.68446 6.29298 8.6855L4.55817 8.68632L6.86995 6.39603L9.18171 4.10578L9.20479 5.7276C9.21849 6.69065 9.21723 7.56993 9.20169 7.89227ZM15.988 4.95525C15.6389 5.19358 15.2938 5.53613 15.1353 5.80167C14.9469 6.11709 14.9314 6.23426 14.9164 7.44952C14.894 9.25878 14.9652 9.78928 15.2874 10.2174C15.4874 10.483 15.818 10.7274 16.1694 10.8694C16.4352 10.9768 16.7874 11.0251 17.4281 11.042C18.314 11.0654 18.6258 10.9865 18.9683 10.6521C19.2794 10.3485 19.396 9.94143 19.2782 9.56995C19.1808 9.26253 18.9363 8.95752 18.6843 8.82893C18.5125 8.74131 18.3409 8.71272 17.8261 8.68601C17.5651 8.67247 17.3461 8.65595 17.3395 8.64931C17.3329 8.64266 17.3196 8.29364 17.31 7.87372L17.2925 7.11021H24.1124H30.9323L30.9139 7.46905C30.9039 7.66641 30.8956 8.01298 30.8955 8.23918L30.8954 8.65043L26.8778 8.66985C24.668 8.68052 22.5055 8.70129 22.072 8.71598C20.9908 8.75265 20.8259 8.79276 20.5478 9.08679C20.2831 9.36669 20.1673 9.70437 20.2263 10.0244C20.3153 10.5073 20.6883 10.8759 21.1778 10.9646C21.5417 11.0306 22.6326 11.049 26.1952 11.0491C29.7782 11.0493 31.2924 11.0261 31.6769 10.9651C31.7811 10.9486 31.9328 10.9048 32.0139 10.8678C32.488 10.6516 33.0271 10.1241 33.1769 9.72979C33.2734 9.47589 33.2967 9.03655 33.2786 7.81577C33.2606 6.61005 33.239 6.31745 33.1445 5.99849C33.039 5.64209 32.877 5.4278 32.4966 5.14111C32.2554 4.95944 32.1094 4.90059 31.7961 4.85882C31.3815 4.8036 28.9876 4.77737 22.6912 4.75913L16.3023 4.74059L15.988 4.95525ZM37.8331 15.1505C37.5599 15.1737 37.2279 15.2218 37.0591 15.2627C36.6996 15.3497 36.1803 15.6724 35.666 16.1287C35.3905 16.373 35.1827 16.5326 35.0487 16.6027C34.9055 16.6776 34.6402 16.6803 34.2165 16.6112C33.8473 16.551 33.2995 16.55 32.9659 16.609C32.0734 16.7667 31.3511 17.2379 30.851 17.9888C30.511 18.4993 30.4201 18.7456 30.2906 19.508C30.1768 20.1777 30.147 20.2171 29.4741 20.5911C28.9606 20.8766 28.7865 21.0057 28.4328 21.3634C27.8156 21.9875 27.5462 22.6529 27.5462 23.5531C27.5462 24.1398 27.6009 24.3651 27.9018 25.0173C28.157 25.5705 28.2012 25.7147 28.1882 25.9532C28.1787 26.128 28.155 26.1976 27.977 26.5723C27.6464 27.2684 27.539 27.6853 27.538 28.2751C27.5367 29.1263 27.8046 29.7631 28.4328 30.4016C28.7704 30.7448 29.0493 30.9461 29.5574 31.2134C30.128 31.5135 30.1665 31.5702 30.3167 32.3309C30.4609 33.0615 30.6255 33.4662 30.9583 33.9082C31.2927 34.3522 31.8576 34.7654 32.4744 35.0169L32.6602 35.0927L32.6783 35.4483C32.6883 35.6438 32.6967 36.7854 32.697 37.9851C32.6975 40.2702 32.7219 41.1129 32.7975 41.4536C32.8882 41.8624 33.1525 42.2899 33.4566 42.5201C33.7868 42.7701 34.2502 42.9234 34.6668 42.9206C35.1541 42.9174 35.4761 42.7735 36.9043 41.9209C37.3842 41.6345 37.8424 41.3648 37.9224 41.3217L38.068 41.2433L38.232 41.3368C38.3222 41.3883 38.7941 41.6686 39.2807 41.9597C40.5889 42.7424 40.8978 42.8821 41.368 42.904C42.2729 42.9462 43.1581 42.2856 43.3207 41.4469C43.3864 41.108 43.422 39.9356 43.4427 37.4279L43.4621 35.0836L43.645 35.0191C44.4441 34.7375 45.2475 33.983 45.5341 33.2453C45.6171 33.0315 45.7265 32.6179 45.8673 31.9853C45.9633 31.5534 46.0484 31.4662 46.7013 31.131C46.899 31.0295 47.144 30.8873 47.2457 30.815C47.7787 30.4361 48.2799 29.7406 48.4486 29.146C48.4927 28.9903 48.5 28.8553 48.5 28.1907C48.5 27.4231 48.4994 27.4149 48.4247 27.2041C48.3832 27.0871 48.2608 26.8122 48.1526 26.5933C47.9165 26.1156 47.873 25.9532 47.9192 25.7229C47.9372 25.6335 48.0524 25.351 48.1753 25.0953C48.5054 24.4082 48.5001 24.434 48.4995 23.5186C48.499 22.7519 48.4983 22.7425 48.4228 22.5195C48.3379 22.2687 48.085 21.8139 47.8887 21.5588C47.612 21.1991 47.2434 20.9121 46.6504 20.5945C46.0785 20.2882 45.8844 20.0653 45.826 19.6477C45.6143 18.1349 44.8327 17.1425 43.5015 16.6963C43.0008 16.5285 42.4272 16.4993 41.8297 16.6112C41.6904 16.6373 41.4751 16.6601 41.3512 16.662C41.1526 16.665 41.1089 16.6559 40.9809 16.5849C40.9011 16.5407 40.7109 16.3887 40.5582 16.2472C40.0563 15.782 39.7915 15.5889 39.4126 15.4113C38.9634 15.2009 38.3779 15.1042 37.8331 15.1505ZM6.10165 16.9919C5.82175 17.3456 5.73211 17.5224 5.71323 17.7579C5.68641 18.0918 5.82752 18.3754 6.24562 18.8281L6.42352 19.0208L15.6128 19.0251C24.3181 19.0293 24.8116 19.0269 24.9821 18.9798C25.3716 18.8722 25.6798 18.6244 25.837 18.2926C25.9214 18.1143 25.9279 18.0798 25.9279 17.8052C25.9279 17.541 25.9198 17.4933 25.8518 17.3549C25.7465 17.1408 25.5189 16.9189 25.3337 16.8496C25.0029 16.7258 25.1065 16.7272 15.4949 16.7161L6.32836 16.7054L6.10165 16.9919ZM38.4242 17.5488C38.4706 17.5779 38.6289 17.7117 38.776 17.8462C39.5157 18.523 40.0186 18.8177 40.6617 18.9516C40.9341 19.0083 41.7479 19.0074 42.2531 18.9498C42.769 18.891 42.934 18.9275 43.1425 19.1468C43.3269 19.3408 43.3823 19.4912 43.4788 20.0588C43.5766 20.6346 43.7141 20.9937 44.0064 21.4359C44.3151 21.9029 44.7485 22.2641 45.4607 22.6476C46.0341 22.9563 46.2006 23.1829 46.173 23.6165C46.1634 23.7678 46.127 23.8639 45.9054 24.3235C45.7643 24.6161 45.6289 24.9171 45.6045 24.9924C45.5257 25.2355 45.494 25.5923 45.5116 26.0376C45.5336 26.5926 45.5863 26.7873 45.8807 27.4013C46.0109 27.6729 46.131 27.9458 46.1476 28.0077C46.1893 28.1636 46.1856 28.4278 46.1401 28.5367C46.0804 28.6794 45.8152 28.8999 45.4541 29.1068C45.0343 29.3475 44.776 29.5225 44.5504 29.7193C43.9361 30.2552 43.5901 30.912 43.4627 31.7844C43.3704 32.4162 43.2516 32.6063 42.843 32.7764L42.6205 32.8691L42.1828 32.7954C41.2626 32.6403 40.6121 32.7197 39.8877 33.0754C39.5212 33.2554 39.3225 33.4009 38.8934 33.8033C38.4783 34.1926 38.3648 34.2518 38.0301 34.2535C37.8394 34.2544 37.7509 34.2419 37.6717 34.203C37.6139 34.1746 37.4049 34.0002 37.2073 33.8154C36.5537 33.2043 36.1635 32.9603 35.6191 32.8221C35.2335 32.7243 34.9072 32.7089 34.3395 32.7616C33.7934 32.8124 33.3739 32.8191 33.2356 32.7795C32.9401 32.6947 32.733 32.3545 32.6407 31.8023C32.4906 30.9035 32.2459 30.3841 31.727 29.8625C31.3969 29.5306 31.2224 29.4077 30.7099 29.1463C30.2095 28.891 30.1585 28.8488 30.0231 28.5782C29.8415 28.2153 29.8637 28.0848 30.2323 27.3495C30.4888 26.8379 30.5315 26.6637 30.55 26.0517C30.5747 25.2355 30.52 24.9766 30.1639 24.2222C29.8831 23.6275 29.8695 23.5841 29.9081 23.4044C29.9821 23.0594 30.167 22.8886 30.8347 22.5481C31.8771 22.0167 32.4252 21.2341 32.641 19.969C32.7223 19.4921 32.781 19.3525 32.984 19.1526C33.0765 19.0616 33.1857 18.9787 33.2268 18.9684C33.2678 18.9581 33.6498 18.9637 34.0756 18.9808C34.9316 19.0153 35.3312 18.9961 35.6941 18.9031C36.1603 18.7837 36.66 18.4662 37.2238 17.9314C37.6646 17.5131 37.6841 17.5035 38.1005 17.4986C38.2893 17.4964 38.3575 17.507 38.4242 17.5488ZM37.2702 19.6805C36.4707 19.7617 35.868 19.946 35.1527 20.3279C33.3333 21.2991 32.1608 22.8733 31.8221 24.7992C31.7466 25.229 31.7186 26.0814 31.7653 26.5332C31.8892 27.733 32.2814 28.6838 33.0526 29.6542C33.1572 29.7858 33.4147 30.0644 33.6247 30.2734C34.4657 31.1099 35.2847 31.6 36.3552 31.9072C36.9079 32.0659 37.1077 32.0881 37.9738 32.0868C38.8307 32.0857 39.2594 32.0404 39.8066 31.8934C40.7017 31.6529 41.6767 31.0886 42.4262 30.3773C43.0751 29.7614 43.7034 28.7951 44.0491 27.8811C44.2724 27.2908 44.3302 26.8751 44.3309 25.8546C44.3317 24.6203 44.2122 24.0833 43.724 23.1275C42.9003 21.5149 41.4988 20.3425 39.8155 19.8579C39.2976 19.7088 39.0887 19.6854 38.199 19.6769C37.7501 19.6726 37.3321 19.6742 37.2702 19.6805ZM8.36551 21.5225C6.76587 21.5465 6.49309 21.5669 6.30556 21.6768C6.02009 21.8441 5.81638 22.1549 5.75688 22.5139C5.67996 22.9782 5.92285 23.4848 6.31418 23.6762C6.44252 23.739 6.52394 23.7544 6.83882 23.7753C7.30665 23.8062 15.6351 23.8526 21.1199 23.8547L25.262 23.8564L25.5065 23.5857C25.8153 23.2438 25.9183 23.0382 25.9363 22.7281C25.969 22.1632 25.613 21.6915 25.0693 21.5793C24.984 21.5617 24.6547 21.5352 24.3375 21.5204C23.6648 21.489 10.4912 21.4907 8.36551 21.5225ZM38.7813 22.0549C39.099 22.0858 39.2823 22.1428 39.6888 22.337C40.1299 22.5476 40.542 22.8362 40.8704 23.1645C41.1942 23.488 41.3904 23.7597 41.5872 24.1568C41.8496 24.6861 41.9557 25.1141 41.9768 25.728C42.0162 26.8761 41.6547 27.7942 40.8463 28.5991C40.5036 28.9403 40.236 29.1371 39.8564 29.3271C39.2687 29.6213 38.7194 29.7491 38.0442 29.7488C37.3699 29.7485 36.8789 29.6354 36.2852 29.3436C35.8666 29.138 35.5505 28.9019 35.1868 28.5233C34.6469 27.9613 34.3443 27.3908 34.1845 26.6339C34.1054 26.2597 34.0988 25.5754 34.1703 25.1803C34.3826 24.0082 35.1903 22.9526 36.3136 22.3794C36.5866 22.2401 36.9954 22.0968 37.228 22.0588C37.4374 22.0246 38.4439 22.0221 38.7813 22.0549ZM8.22479 26.3917C6.71349 26.4147 6.43694 26.4359 6.25524 26.5424C5.68505 26.8765 5.57442 27.7828 6.04005 28.3052C6.2533 28.5445 6.40798 28.6148 6.78549 28.644C7.24743 28.6798 13.2782 28.7243 17.5266 28.7233C21.6038 28.7222 24.5345 28.6898 24.8955 28.6418C25.2421 28.5956 25.4118 28.522 25.6014 28.3356C25.8229 28.1179 25.9197 27.9083 25.936 27.6111C25.9594 27.1865 25.8314 26.9176 25.4361 26.5607L25.2152 26.3613L17.4096 26.366C13.1164 26.3685 8.98329 26.3801 8.22479 26.3917ZM6.11038 31.5103C5.98848 31.6659 5.85077 31.8661 5.80433 31.9551C5.72978 32.0979 5.7199 32.1449 5.7199 32.3567C5.7199 32.5702 5.72983 32.6165 5.81044 32.7789C5.86023 32.8791 6.01221 33.0907 6.14818 33.249L6.39537 33.5369L15.8685 33.5375L25.3416 33.5382L25.5398 33.2919C25.7681 33.0083 25.8408 32.876 25.9038 32.6305C25.9599 32.4115 25.9422 32.1528 25.8552 31.9198C25.7669 31.6836 25.511 31.4291 25.2946 31.3625C24.9393 31.253 24.8127 31.2514 15.4404 31.2392L6.33199 31.2273L6.11038 31.5103ZM35.4805 35.4704C35.6572 35.6228 35.8978 35.8277 36.0153 35.9256C36.6381 36.4447 37.2063 36.607 38.2678 36.569C39.2581 36.5336 39.6576 36.3575 40.4193 35.6208C40.7167 35.3331 40.967 35.1424 41.0471 35.1424C41.0769 35.1424 41.0838 35.4256 41.0838 36.6295C41.0838 38.4167 41.0545 40.2366 41.0257 40.2366C41.0142 40.2366 40.6648 40.0325 40.2492 39.7829C39.39 39.2668 38.764 38.9471 38.4434 38.8606C38.1736 38.7879 37.8101 38.7819 37.592 38.8466C37.3283 38.925 36.8612 39.1811 35.6238 39.9262L35.1031 40.2397L35.086 39.2883C35.0765 38.765 35.067 37.6177 35.0648 36.7387C35.0611 35.2246 35.0634 35.1418 35.1101 35.1668C35.1372 35.1813 35.3039 35.3179 35.4805 35.4704ZM7.31008 38.3509C6.99275 38.362 6.66345 38.3808 6.57831 38.3926C6.16903 38.4492 5.84514 38.7924 5.75879 39.261C5.66828 39.7523 5.94582 40.3063 6.38003 40.5012C6.68966 40.6401 6.82472 40.644 11.4614 40.6443C16.0358 40.6448 16.0563 40.6442 16.3586 40.5064C16.804 40.3034 17.0824 39.7685 16.9965 39.2808C16.9368 38.9418 16.7505 38.6514 16.4979 38.5034C16.21 38.3347 16.3762 38.3408 11.9399 38.3355C9.71083 38.3329 7.62741 38.3398 7.31008 38.3509Z" fill="black"/></symbol>
</svg>
