<svg width="532" height="195" viewBox="0 0 532 195" fill="none" xmlns="http://www.w3.org/2000/svg">
<path d="M530.279 97.2834C530.279 110.246 523.076 122.723 509.764 134.196C496.455 145.667 477.138 156.043 453.182 164.776C405.277 182.24 339.031 193.062 265.809 193.062C192.587 193.062 126.341 182.24 78.4365 164.776C54.4801 156.043 35.1635 145.667 21.8546 134.196C8.54269 122.723 1.33984 110.246 1.33984 97.2834C1.33984 84.3211 8.54269 71.844 21.8546 60.3703C35.1635 48.8993 54.4801 38.5237 78.4365 29.7902C126.341 12.3263 192.587 1.505 265.809 1.505C339.031 1.505 405.277 12.3263 453.182 29.7902C477.138 38.5237 496.455 48.8993 509.764 60.3703C523.076 71.844 530.279 84.3211 530.279 97.2834Z" stroke="#E27F38" stroke-width="2"/>
</svg>
