<svg width="25" height="25" viewBox="0 0 25 25" fill="none" xmlns="http://www.w3.org/2000/svg">
<path fill-rule="evenodd" clip-rule="evenodd" d="M11.3133 0.0303533C7.40168 0.437109 3.97352 2.5659 1.891 5.8814C-1.06167 10.5823 -0.510591 16.7909 3.22242 20.8808C5.28836 23.1443 7.87208 24.4974 10.9705 24.9388C11.549 25.0212 13.4713 25.0202 14.0752 24.9371C16.905 24.548 19.4394 23.293 21.3668 21.3261C21.9994 20.6806 22.1342 20.5263 22.5538 19.9667C23.8041 18.299 24.6228 16.266 24.9387 14.0441C25.0205 13.4685 25.0205 11.5372 24.9386 10.9619C24.7279 9.4807 24.3447 8.2187 23.7301 6.98097C23.0788 5.6696 22.4104 4.73471 21.3701 3.67986C19.4404 1.72303 17.0241 0.507462 14.2464 0.0959118C13.6466 0.00701647 11.9107 -0.0317315 11.3133 0.0303533ZM13.6702 4.47458C16.4736 5.0195 18.4953 7.32314 18.698 10.2036C18.8251 12.0105 17.4244 14.6947 14.3965 18.4473C13.7754 19.217 12.5563 20.6244 12.5106 20.6244C12.465 20.6244 11.2459 19.217 10.6248 18.4473C9.00049 16.4343 7.89237 14.7922 7.15819 13.3102C6.325 11.6285 6.15861 10.6902 6.44689 9.29846C6.95093 6.86492 8.85978 4.97419 11.3128 4.47869C11.9347 4.35305 13.0351 4.35114 13.6702 4.47458ZM11.9294 8.17716C10.6897 8.51078 9.92272 9.79519 10.2386 11.0088C10.5657 12.2654 11.8474 13.0405 13.0709 12.7216C14.3267 12.3943 15.1014 11.1118 14.7827 9.8876C14.62 9.2626 14.1179 8.62252 13.5837 8.35911C13.0732 8.1074 12.4452 8.03832 11.9294 8.17716Z" fill="#E27F38"/>
</svg>
