<svg width="25" height="25" viewBox="0 0 25 25" fill="none" xmlns="http://www.w3.org/2000/svg">
<path fill-rule="evenodd" clip-rule="evenodd" d="M11.3121 0.0303532C7.39884 0.437206 3.97233 2.56482 1.88895 5.88138C-1.06477 10.5835 -0.507142 16.8263 3.22992 20.8936C5.30817 23.1555 7.87735 24.4984 10.9693 24.9387C11.5501 25.0215 13.4711 25.0201 14.0743 24.9366C17.1225 24.5144 19.6959 23.1692 21.7625 20.9179C23.4849 19.0416 24.558 16.719 24.9386 14.0441C25.0205 13.4685 25.0205 11.5374 24.9386 10.9619C24.5968 8.55929 23.7165 6.47884 22.2804 4.68005C21.8224 4.10617 20.9484 3.23033 20.3576 2.75317C18.5977 1.33154 16.5361 0.435249 14.2454 0.0959115C13.6456 0.00701645 11.9095 -0.0317314 11.3121 0.0303532ZM16.1824 6.66876L19.847 8.95596L16.1782 8.96849C14.1605 8.97539 10.8593 8.97539 8.8424 8.96849L5.17527 8.95596L8.31235 6.999C10.0377 5.92267 11.6824 4.89488 11.9673 4.71503C12.252 4.53518 12.4925 4.3866 12.5015 4.38479C12.5105 4.38303 14.1669 5.41078 16.1824 6.66876ZM8.42657 11.1821C12.6273 13.806 12.2418 13.5794 12.5054 13.5787C12.6494 13.5783 12.7995 13.5378 12.9252 13.4653C13.0327 13.4033 14.507 12.4875 16.2013 11.4303C17.8956 10.373 19.4359 9.41203 19.6242 9.29476L19.9664 9.08165L19.979 12.874C19.9915 16.6555 19.9912 16.6671 19.8867 16.91C19.7652 17.1928 19.392 17.5531 19.1212 17.649C18.9746 17.701 17.697 17.7134 12.4851 17.7134C6.58689 17.7134 6.01523 17.7064 5.8526 17.6325C5.5798 17.5085 5.26969 17.2017 5.14324 16.9306L5.02916 16.686L5.02867 12.8773L5.02818 9.06859L5.1871 9.16326C5.27448 9.21531 6.73227 10.1238 8.42657 11.1821Z" fill="#E27F38"/>
</svg>
