<svg width="59" height="48" viewBox="0 0 59 48" fill="none" xmlns="http://www.w3.org/2000/svg">
<symbol id="material"><path fill-rule="evenodd" clip-rule="evenodd" d="M14.7126 7.34749C-1.01844 15.324 -0.175855 14.8429 0.110036 15.6855C0.204343 15.9635 0.630507 16.2245 2.80527 17.3364C4.22605 18.0628 5.3885 18.6852 5.38862 18.7194C5.38862 18.7538 4.26097 19.3481 2.88259 20.0401C1.50421 20.7323 0.30162 21.4052 0.210163 21.5354C-0.0302368 21.8779 -0.0302368 26.1221 0.210163 26.4646C0.30162 26.5948 1.50421 27.2677 2.88259 27.9599C4.26097 28.6519 5.38862 29.2462 5.38862 29.2806C5.3885 29.3148 4.22605 29.9372 2.80527 30.6636C0.630507 31.7755 0.204343 32.0365 0.110036 32.3145C-0.175855 33.1571 -1.01844 32.676 14.7126 40.6525C22.6823 44.6937 29.3367 48 29.5 48C29.6633 48 36.3177 44.6937 44.2874 40.6525C60.0184 32.676 59.1759 33.1571 58.89 32.3145C58.7957 32.0365 58.3695 31.7755 56.1947 30.6636C54.7739 29.9372 53.6115 29.3148 53.6114 29.2806C53.6114 29.2462 54.739 28.6519 56.1174 27.9599C57.4958 27.2677 58.6984 26.5948 58.7898 26.4646C59.0302 26.1221 59.0302 21.8779 58.7898 21.5354C58.6984 21.4052 57.4958 20.7323 56.1174 20.0401C54.739 19.3481 53.6114 18.7538 53.6114 18.7194C53.6115 18.6852 54.7739 18.0628 56.1947 17.3364C58.3695 16.2245 58.7957 15.9635 58.89 15.6855C59.1759 14.8429 60.0184 15.324 44.2874 7.34749C36.3177 3.30635 29.6633 0 29.5 0C29.3367 0 22.6823 3.30635 14.7126 7.34749ZM42.6245 8.66148C49.843 12.3098 55.7492 15.3221 55.7492 15.3553C55.7492 15.3886 49.8431 18.4009 42.6246 22.0492L29.5 28.6824L16.3754 22.0492C9.15687 18.4009 3.2508 15.3886 3.2508 15.3553C3.2508 15.3103 29.31 2.07112 29.4702 2.03486C29.4865 2.03114 35.4058 5.01319 42.6245 8.66148ZM18.454 25.2607C24.3984 28.2653 29.3691 30.7236 29.5 30.7236C29.6309 30.7236 34.6015 28.2654 40.5458 25.2608L51.3535 19.798L53.5513 20.907C54.7602 21.5169 55.7492 22.0438 55.7492 22.0778C55.7492 22.1117 49.8431 25.1245 42.6246 28.7728L29.5 35.406L16.3754 28.7728C9.15687 25.1245 3.2508 22.1117 3.2508 22.0776C3.2508 22.0313 7.45708 19.841 7.616 19.8046C7.63251 19.8009 12.5095 22.2561 18.454 25.2607ZM28.5498 37.9278V38.7682L15.247 32.0443L1.94427 25.3205V24.48V23.6396L15.247 30.3634L28.5498 37.0873V37.9278ZM57.0557 24.4801V25.3205L43.753 32.0443L30.4502 38.7682V37.9278V37.0873L43.7233 30.3702C51.0234 26.6758 57.0098 23.65 57.026 23.6464C57.0423 23.6428 57.0557 24.018 57.0557 24.4801ZM18.454 35.8264C24.3984 38.831 29.3691 41.2893 29.5 41.2893C29.6309 41.2893 34.6015 38.8311 40.5458 35.8265L51.3535 30.3637L53.5513 31.4727C54.7602 32.0826 55.7492 32.6095 55.7492 32.6435C55.7492 32.6774 49.8431 35.6902 42.6246 39.3385L29.5 45.9717L16.3754 39.3385C9.15687 35.6902 3.2508 32.6774 3.2508 32.6433C3.2508 32.597 7.45708 30.4067 7.616 30.3703C7.63251 30.3666 12.5095 32.8218 18.454 35.8264Z" fill="black"/></symbol>
</svg>
