<svg width="40" height="27" viewBox="0 0 40 27" fill="none" xmlns="http://www.w3.org/2000/svg">
<path d="M11.528 26.86C9.728 26.836 8.144 26.416 6.776 25.6C5.408 24.784 4.268 23.752 3.356 22.504C2.444 21.256 1.748 19.876 1.268 18.364C0.812 16.828 0.584 15.34 0.584 13.9C0.584 12.364 0.836 10.828 1.34 9.292C1.844 7.732 2.564 6.34 3.5 5.116C4.46 3.868 5.612 2.86 6.956 2.092C8.3 1.324 9.824 0.939999 11.528 0.939999C13.328 0.939999 14.9 1.36 16.244 2.2C17.612 3.016 18.752 4.06 19.664 5.332C20.6 6.604 21.296 8.008 21.752 9.544C22.208 11.056 22.436 12.508 22.436 13.9C22.436 15.46 22.184 17.008 21.68 18.544C21.176 20.08 20.444 21.46 19.484 22.684C18.548 23.908 17.408 24.904 16.064 25.672C14.72 26.44 13.208 26.836 11.528 26.86ZM4.688 13.9C4.712 14.98 4.868 16.084 5.156 17.212C5.468 18.316 5.9 19.312 6.452 20.2C7.028 21.088 7.736 21.82 8.576 22.396C9.416 22.948 10.4 23.224 11.528 23.224C12.704 23.224 13.712 22.924 14.552 22.324C15.416 21.724 16.124 20.968 16.676 20.056C17.228 19.144 17.636 18.136 17.9 17.032C18.188 15.928 18.332 14.884 18.332 13.9C18.332 12.82 18.176 11.728 17.864 10.624C17.576 9.496 17.144 8.488 16.568 7.6C15.992 6.712 15.284 5.992 14.444 5.44C13.604 4.864 12.632 4.576 11.528 4.576C10.352 4.576 9.332 4.876 8.468 5.476C7.604 6.076 6.896 6.844 6.344 7.78C5.792 8.692 5.372 9.7 5.084 10.804C4.82 11.884 4.688 12.916 4.688 13.9ZM39.6277 22.936V26.5H26.0557V22.936H30.9877V4.72C30.7957 5.008 30.4717 5.332 30.0157 5.692C29.5837 6.028 29.0917 6.364 28.5397 6.7C27.9877 7.012 27.4117 7.276 26.8117 7.492C26.2357 7.708 25.7077 7.816 25.2277 7.816V4.144C25.8757 4.144 26.5357 3.976 27.2077 3.64C27.8797 3.28 28.4917 2.896 29.0437 2.488C29.5957 2.056 30.0517 1.66 30.4117 1.3C30.7717 0.939999 30.9637 0.735999 30.9877 0.688H35.0557V22.936H39.6277Z" fill="#61A120"/>
</svg>
