<svg width="44" height="27" viewBox="0 0 44 27" fill="none" xmlns="http://www.w3.org/2000/svg">
<path d="M11.528 26.36C9.728 26.336 8.144 25.916 6.776 25.1C5.408 24.284 4.268 23.252 3.356 22.004C2.444 20.756 1.748 19.376 1.268 17.864C0.812 16.328 0.584 14.84 0.584 13.4C0.584 11.864 0.836 10.328 1.34 8.792C1.844 7.232 2.564 5.84 3.5 4.616C4.46 3.368 5.612 2.36 6.956 1.592C8.3 0.823999 9.824 0.439999 11.528 0.439999C13.328 0.439999 14.9 0.859999 16.244 1.7C17.612 2.516 18.752 3.56 19.664 4.832C20.6 6.104 21.296 7.508 21.752 9.044C22.208 10.556 22.436 12.008 22.436 13.4C22.436 14.96 22.184 16.508 21.68 18.044C21.176 19.58 20.444 20.96 19.484 22.184C18.548 23.408 17.408 24.404 16.064 25.172C14.72 25.94 13.208 26.336 11.528 26.36ZM4.688 13.4C4.712 14.48 4.868 15.584 5.156 16.712C5.468 17.816 5.9 18.812 6.452 19.7C7.028 20.588 7.736 21.32 8.576 21.896C9.416 22.448 10.4 22.724 11.528 22.724C12.704 22.724 13.712 22.424 14.552 21.824C15.416 21.224 16.124 20.468 16.676 19.556C17.228 18.644 17.636 17.636 17.9 16.532C18.188 15.428 18.332 14.384 18.332 13.4C18.332 12.32 18.176 11.228 17.864 10.124C17.576 8.996 17.144 7.988 16.568 7.1C15.992 6.212 15.284 5.492 14.444 4.94C13.604 4.364 12.632 4.076 11.528 4.076C10.352 4.076 9.332 4.376 8.468 4.976C7.604 5.576 6.896 6.344 6.344 7.28C5.792 8.192 5.372 9.2 5.084 10.304C4.82 11.384 4.688 12.416 4.688 13.4ZM25.6153 26C25.6153 24.32 25.7473 22.868 26.0113 21.644C26.2753 20.42 26.6713 19.352 27.1993 18.44C27.7513 17.504 28.4473 16.7 29.2873 16.028C30.1273 15.332 31.1353 14.696 32.3113 14.12C33.1033 13.736 33.9073 13.364 34.7233 13.004C35.5393 12.644 36.2713 12.236 36.9193 11.78C37.5913 11.324 38.1313 10.784 38.5393 10.16C38.9713 9.536 39.1873 8.756 39.1873 7.82C39.1873 6.644 38.8153 5.672 38.0713 4.904C37.3513 4.136 36.2713 3.752 34.8313 3.752C34.0633 3.752 33.3433 3.86 32.6713 4.076C32.0233 4.268 31.4113 4.532 30.8353 4.868C30.2833 5.18 29.7913 5.528 29.3593 5.912C28.9273 6.296 28.5673 6.668 28.2793 7.028L25.7593 4.4C25.9993 4.088 26.3833 3.692 26.9113 3.212C27.4633 2.732 28.1353 2.264 28.9273 1.808C29.7433 1.352 30.6793 0.955998 31.7353 0.619998C32.8153 0.283998 34.0033 0.115999 35.2993 0.115999C36.6673 0.115999 37.8673 0.319999 38.8993 0.727999C39.9553 1.112 40.8313 1.652 41.5273 2.348C42.2233 3.02 42.7513 3.824 43.1113 4.76C43.4713 5.672 43.6513 6.668 43.6513 7.748C43.6513 8.9 43.4593 9.896 43.0753 10.736C42.6913 11.552 42.1753 12.272 41.5273 12.896C40.9033 13.496 40.1833 14.036 39.3673 14.516C38.5513 14.972 37.7113 15.416 36.8473 15.848C35.7673 16.352 34.8553 16.844 34.1113 17.324C33.3673 17.804 32.7553 18.308 32.2753 18.836C31.8193 19.34 31.4833 19.892 31.2673 20.492C31.0753 21.068 30.9793 21.716 30.9793 22.436H43.6873V26H25.6153Z" fill="#61A120"/>
</svg>
