<svg width="44" height="27" viewBox="0 0 44 27" fill="none" xmlns="http://www.w3.org/2000/svg">
<path d="M11.528 26.86C9.728 26.836 8.144 26.416 6.776 25.6C5.408 24.784 4.268 23.752 3.356 22.504C2.444 21.256 1.748 19.876 1.268 18.364C0.812 16.828 0.584 15.34 0.584 13.9C0.584 12.364 0.836 10.828 1.34 9.292C1.844 7.732 2.564 6.34 3.5 5.116C4.46 3.868 5.612 2.86 6.956 2.092C8.3 1.324 9.824 0.939999 11.528 0.939999C13.328 0.939999 14.9 1.36 16.244 2.2C17.612 3.016 18.752 4.06 19.664 5.332C20.6 6.604 21.296 8.008 21.752 9.544C22.208 11.056 22.436 12.508 22.436 13.9C22.436 15.46 22.184 17.008 21.68 18.544C21.176 20.08 20.444 21.46 19.484 22.684C18.548 23.908 17.408 24.904 16.064 25.672C14.72 26.44 13.208 26.836 11.528 26.86ZM4.688 13.9C4.712 14.98 4.868 16.084 5.156 17.212C5.468 18.316 5.9 19.312 6.452 20.2C7.028 21.088 7.736 21.82 8.576 22.396C9.416 22.948 10.4 23.224 11.528 23.224C12.704 23.224 13.712 22.924 14.552 22.324C15.416 21.724 16.124 20.968 16.676 20.056C17.228 19.144 17.636 18.136 17.9 17.032C18.188 15.928 18.332 14.884 18.332 13.9C18.332 12.82 18.176 11.728 17.864 10.624C17.576 9.496 17.144 8.488 16.568 7.6C15.992 6.712 15.284 5.992 14.444 5.44C13.604 4.864 12.632 4.576 11.528 4.576C10.352 4.576 9.332 4.876 8.468 5.476C7.604 6.076 6.896 6.844 6.344 7.78C5.792 8.692 5.372 9.7 5.084 10.804C4.82 11.884 4.688 12.916 4.688 13.9ZM34.0033 26.824C31.8433 26.824 30.0193 26.356 28.5312 25.42C27.0433 24.46 26.0713 23.152 25.6153 21.496L27.7753 18.976C27.8233 19.408 27.9913 19.876 28.2793 20.38C28.5913 20.86 28.9993 21.304 29.5033 21.712C30.0313 22.12 30.6673 22.468 31.4113 22.756C32.1553 23.02 32.9953 23.152 33.9313 23.152C34.6753 23.152 35.3713 23.068 36.0193 22.9C36.6673 22.708 37.2313 22.444 37.7113 22.108C38.1913 21.748 38.5633 21.328 38.8273 20.848C39.1153 20.368 39.2593 19.816 39.2593 19.192C39.2593 17.824 38.5753 16.792 37.2073 16.096C35.8633 15.4 33.9913 15.052 31.5913 15.052H30.3673V11.704H31.5913C33.6793 11.704 35.3713 11.392 36.6673 10.768C37.9633 10.144 38.6113 9.172 38.6113 7.852C38.6113 7.252 38.4793 6.724 38.2153 6.268C37.9513 5.788 37.6033 5.392 37.1713 5.08C36.7393 4.744 36.2473 4.504 35.6953 4.36C35.1673 4.192 34.6273 4.108 34.0753 4.108C32.5633 4.108 31.3033 4.444 30.2953 5.116C29.3113 5.764 28.6153 6.496 28.2073 7.312L25.6153 4.468C25.9993 3.868 26.4913 3.328 27.0913 2.848C27.7153 2.368 28.3993 1.972 29.1433 1.66C29.8873 1.324 30.6793 1.072 31.5193 0.903999C32.3593 0.711999 33.1993 0.615999 34.0393 0.615999C35.2873 0.615999 36.4513 0.795998 37.5313 1.156C38.6113 1.516 39.5353 2.02 40.3033 2.668C41.0713 3.292 41.6713 4.036 42.1033 4.9C42.5593 5.74 42.7873 6.664 42.7873 7.672C42.7873 9.112 42.3553 10.3 41.4913 11.236C40.6513 12.172 39.4513 12.82 37.8913 13.18C38.7313 13.324 39.4873 13.6 40.1593 14.008C40.8313 14.416 41.4073 14.908 41.8873 15.484C42.3673 16.06 42.7273 16.72 42.9673 17.464C43.2313 18.184 43.3633 18.94 43.3633 19.732C43.3633 20.884 43.0993 21.904 42.5713 22.792C42.0433 23.68 41.3473 24.424 40.4833 25.024C39.6193 25.624 38.6233 26.08 37.4953 26.392C36.3673 26.68 35.2033 26.824 34.0033 26.824Z" fill="#61A120"/>
</svg>
