<svg xmlns="http://www.w3.org/2000/svg" xmlns:xlink="http://www.w3.org/1999/xlink"><symbol id="arrow"><path clip-rule="evenodd" d="M30.593.929l6.364 6.364a1 1 0 010 1.414l-6.364 6.364a1 1 0 01-1.414-1.414L33.836 9H.75V7h33.086l-4.657-4.657A1 1 0 0130.593.93z"/></symbol><symbol id="brush" viewBox="0 0 56 48"><path fill-rule="evenodd" clip-rule="evenodd" d="M23.436.07c-.077.05-.81 1.455-1.628 3.123-1.745 3.557-2.727 5.284-4.688 8.25-1.858 2.81-1.66 2.579-2.081 2.43-.195-.068-.627-.097-.982-.064-1.42.13-2.462 1.299-2.462 2.76 0 .468-.03.512-1.128 1.594-.977.963-1.128 1.16-1.128 1.466 0 .231.091.447.264.621.47.477.737.36 1.925-.837.465-.469.876-.852.913-.852.038 0 3.831 3.806 8.43 8.458l8.364 8.458-1.422 1.378c-1.779 1.725-2.413 2.086-3.644 2.075-1.058-.01-1.521-.24-2.84-1.41-.565-.503-1.21-1.007-1.432-1.121-1.413-.726-3.187-.41-4.282.763-.242.26-.724.936-1.071 1.504-.881 1.44-2.31 3.484-3.131 4.481-1.899 2.303-3.782 3.31-6.007 3.214-.835-.036-1.081-.094-1.681-.392-1.26-.627-1.982-1.74-2.093-3.224-.082-1.097.106-1.983.673-3.173.372-.781.666-1.2 1.36-1.941 1.02-1.091 3.011-2.637 5.244-4.073 1.87-1.202 2.166-1.474 2.612-2.389.3-.614.343-.815.343-1.576 0-.757-.045-.964-.34-1.578-.203-.42-.67-1.07-1.154-1.605-1.219-1.345-1.3-1.542-1.301-3.16-.002-1.513-.087-1.686-.794-1.624-.606.053-.81.449-.854 1.661-.063 1.74.275 2.556 1.756 4.242.982 1.118 1.19 1.56 1.087 2.317-.112.821-.461 1.217-1.838 2.082-2.338 1.467-4.665 3.233-5.838 4.432C.574 38.417-.4 41.377.154 43.754c.257 1.104.666 1.852 1.44 2.637 1.208 1.224 2.496 1.689 4.43 1.598 1.957-.092 3.764-.907 5.333-2.408 1.294-1.237 2.96-3.443 4.484-5.937.932-1.526 1.255-1.836 2.077-1.994.717-.139 1.227.106 2.404 1.15 1.622 1.44 2.833 1.932 4.365 1.775 1.488-.153 2.328-.676 4.465-2.781 1.505-1.484 1.551-1.52 2.012-1.52.75 0 1.221-.187 1.794-.708.787-.716 1.045-1.55.84-2.718l-.078-.438 1.322-.936c2.619-1.855 5.646-3.665 8.81-5.267 1.223-.62 2.25-1.126 2.283-1.126.033 0 .06.404.058.897-.003 1.345-.375 2.813-1.347 5.321-.242.624-.138 1.045.312 1.263.712.345 1.146-.268 1.958-2.77.553-1.705.723-2.81.665-4.33-.047-1.242-.073-1.367-.555-2.609-1.728-4.454-4.874-9.42-8.108-12.796-.33-.344-.548-.625-.487-.625.16 0 2.513.887 3.535 1.333 2.789 1.216 4.617 2.588 5.284 3.968.325.671.452 1.886.268 2.56-.156.572-.049.79.788 1.603 1.377 1.336 2.795 3.467 3.538 5.316.819 2.038 1.217 3.912 1.317 6.194.153 3.526-.592 6.227-2.192 7.942-2.836 3.04-7.184 1.487-6.484-2.317.274-1.492.272-1.547-.053-1.806-.853-.678-1.445.094-1.622 2.115-.27 3.082 2.136 5.49 5.223 5.228 2.009-.17 3.79-1.334 5.064-3.309 1.65-2.556 2.15-6.909 1.285-11.196-.664-3.289-2.41-6.706-4.55-8.909l-.658-.677.031-.92c.056-1.626-.504-2.971-1.763-4.243-1.693-1.708-3.916-2.848-9.13-4.68-1.24-.436-2.45-.864-2.686-.951-.236-.087-1.034-.619-1.773-1.18a39.158 39.158 0 00-5.856-3.693C25.343.33 23.869-.208 23.437.07zm2.578 2.468c.69.318 1.872.928 2.626 1.355 7.007 3.967 12.51 9.854 15.997 17.113.99 2.062 1.134 2.46.914 2.535-.09.03-1.322.647-2.74 1.371-3.325 1.697-6.837 3.838-9.52 5.802l-.6.44-.904-.922c-.897-.915-.902-.923-.677-1.107.83-.68 3.124-2.47 3.764-2.939.423-.31.797-.64.833-.734.211-.556-.145-1.132-.701-1.132-.372 0-1.244.605-3.736 2.591l-1.548 1.233-1.3-1.318-1.3-1.318.54-.512c.297-.282 1.01-.954 1.585-1.494.904-.85 1.045-1.03 1.045-1.331 0-.46-.326-.785-.79-.785-.311 0-.566.194-1.944 1.483L25.97 24.35l-1.273-1.292-1.274-1.292 1.397-1.522c.769-.837 1.446-1.64 1.505-1.786.223-.549-.397-1.226-.958-1.046-.116.038-.757.666-1.424 1.396l-1.437 1.572-.224.244-1.315-1.334-1.315-1.333.575-.704c1.02-1.248 3.101-4.065 3.204-4.337.212-.561-.41-1.224-.977-1.042-.123.04-.811.856-1.528 1.814a113.59 113.59 0 01-1.863 2.43l-.557.688-.903-.917c-.693-.706-.878-.954-.796-1.074.058-.086.476-.684.928-1.33 1.863-2.66 3.655-5.738 5.38-9.245 1.075-2.184 1.213-2.414 1.417-2.35.124.038.79.33 1.48.647zm-2.53 21.69c4.798 4.851 8.743 8.922 8.767 9.048a1.147 1.147 0 01-1.139 1.369c-.44 0-.444-.004-9.019-8.667-4.718-4.767-8.647-8.8-8.732-8.96-.202-.385-.194-.691.025-1.068.218-.371.503-.524 1.002-.534.355-.007.809.433 9.097 8.813zM4.917 39.984c-.217.062-.598.29-.848.505-1.34 1.16-1.09 3.245.49 4.075 1.248.656 2.912-.05 3.37-1.43.612-1.85-1.14-3.682-3.012-3.15zm1.333 1.847a.796.796 0 01-.253 1.243c-.59.31-1.17-.079-1.17-.783 0-.725.953-1.033 1.423-.46z" fill="#000"/><path fill-rule="evenodd" clip-rule="evenodd" d="M34.132 6.158l3.138.879c2.097.587 5.339 1.618 7.946 3.239 2.435 1.514 4.65 3.77 4.34 6.897 2.324 2.609 4.627 6.478 5.486 10.624.907 4.38.204 9.141-3.86 12.934l-.07.066-.082.051c-4.83 3.02-9.835-1.842-7.95-6.242a1 1 0 111.84.788c-1.106 2.578 1.83 5.686 4.97 3.807 3.373-3.196 3.989-7.156 3.193-10.998-.81-3.91-3.08-7.626-5.314-10.02l-.343-.368.09-.494c.384-2.11-.963-3.858-3.356-5.347-1.31-.814-2.823-1.475-4.264-2.002 4.163 5.324 6.417 9.624 7.38 13.139 1.13 4.116.485 7.158-.928 9.419a1 1 0 01-1.696-1.06c1.087-1.74 1.692-4.197.696-7.83-1.008-3.677-3.657-8.548-9.111-14.994l-2.105-2.488z" fill="#E27F38"/></symbol><symbol id="care" viewBox="0 0 40 68"><path fill-rule="evenodd" clip-rule="evenodd" d="M.313 34.367c-.34.346-.354.422-.27 1.353.255 2.795 1.4 6.679 2.865 9.721 1.047 2.174 1.505 2.907 5.442 8.698l2.76 4.06V68h2.223v-5.18c0-3.651-.048-5.272-.161-5.49-.088-.17-1.675-2.54-3.525-5.267-4.252-6.268-5-7.611-6.173-11.095-.403-1.198-1.116-4.082-1.119-4.53-.001-.138.29-.172 1.194-.141l1.195.04.447 1.488c.917 3.047 2.067 5.28 4.677 9.077 1.855 2.701 2.267 3.156 3.314 3.656l.776.371h6.046c6.017 0 6.048-.001 6.754-.327.919-.424 1.554-1.108 3.108-3.348 2.607-3.758 3.861-6.125 4.793-9.048l.596-1.869 1.197-.04 1.197-.041-.082.466c-.595 3.394-1.94 7.051-3.65 9.926-.381.64-2.167 3.332-3.968 5.98l-3.275 4.816V68h2.224v-9.85l3.082-4.531c1.696-2.492 3.427-5.105 3.847-5.806 2.077-3.464 3.693-8.245 4.127-12.209.09-.815.072-.9-.262-1.24L39.334 34h-2.616c-2.107 0-2.674.042-2.915.214-.216.154-.513.893-1.067 2.656-1.086 3.458-2.048 5.281-5.12 9.707-.826 1.192-1.25 1.672-1.661 1.886-.885.46-1.01.309-.451-.54 1.768-2.68 1.423-6.179-.837-8.486-.467-.477-1.175-1.035-1.574-1.241-3.233-1.67-7.14-.495-8.932 2.687-1.225 2.176-1.069 5.143.379 7.197l.49.695-.431-.088c-.754-.154-1.123-.526-2.538-2.554-2.762-3.962-3.834-6.029-4.898-9.441-.352-1.13-.687-2.125-.744-2.21C6.148 34.076 5.638 34 3.19 34H.673l-.36.367zm21.43 5.71c.903.406 1.918 1.434 2.31 2.34.434 1.002.434 2.564 0 3.567-.39.899-1.4 1.926-2.312 2.351-1.01.47-2.652.46-3.613-.02-3.11-1.558-3.478-5.847-.67-7.816.352-.247.897-.535 1.211-.64.792-.265 2.226-.163 3.074.218z" fill="#121212"/><path fill-rule="evenodd" clip-rule="evenodd" d="M18.892 2.267v2.266h2.224V0h-2.224v2.267zM6.555 4.572l-.724.747 1.597 1.624 1.598 1.624.797-.812.796-.812-1.524-1.56c-.838-.857-1.59-1.558-1.67-1.558-.08 0-.472.336-.87.747zm24.358.812L29.39 6.943l.797.812.797.812 1.529-1.554c.84-.855 1.529-1.621 1.529-1.703 0-.188-1.281-1.485-1.467-1.485-.075 0-.822.701-1.66 1.559zM13.23 9.286c-3.332.914-5.006 4.175-4.066 7.922.541 2.156 1.837 4.334 4.009 6.734 1.992 2.202 6.109 5.525 6.845 5.525.699 0 3.87-2.518 6.241-4.955 2.532-2.601 3.99-4.924 4.587-7.304.949-3.78-.743-7.031-4.125-7.93-2.031-.539-4.47.064-6.072 1.502l-.644.577-.643-.577c-1.603-1.438-4.11-2.05-6.132-1.494zm3.477 2.443c.807.364 1.578 1.075 2.144 1.975.756 1.205 1.552 1.205 2.309 0 .9-1.433 2.11-2.211 3.631-2.334 2.916-.236 4.701 2.208 3.905 5.347-.266 1.049-1.033 2.58-1.895 3.782-1.174 1.637-4.375 4.722-6.351 6.122l-.459.325-1.346-1.042c-1.718-1.328-4.27-3.841-5.248-5.166-1.638-2.218-2.379-4.163-2.24-5.886.14-1.763 1.087-2.97 2.664-3.395.65-.176 2.222-.027 2.886.272zM1.104 17v1.133H5.55v-2.266H1.104V17zm33.354 0v1.133h4.447v-2.266h-4.447V17z" fill="#E27F38"/></symbol><symbol id="case" viewBox="0 0 73 64"><path fill-rule="evenodd" clip-rule="evenodd" d="M17.316.227c-1.317.318-2.517 1.008-3.548 2.039-1.742 1.741-2.268 3.366-2.272 7.014l-.003 2.232-4.247.043c-4.092.042-4.27.056-4.85.365-.946.503-1.566 1.124-1.998 2L0 14.728v12.375l.385.727c.211.4.71 1.017 1.106 1.373l.722.646v7.31c0 8.017.022 8.262.859 9.72.577 1.005 1.816 2.131 2.9 2.636 1.277.596 2.678.727 7.202.676 3.558-.041 3.881-.066 4.158-.316.202-.182.3-.443.3-.795 0-.976.049-.966-5.14-1.03-5.238-.065-5.463-.103-6.637-1.133-.362-.317-.831-.904-1.043-1.305l-.386-.729-.04-7.087-.042-7.088.327.103c.18.057 1 .398 1.825.758l1.5.655 6.96.04 6.96.041.003.955c.005 1.572.72 2.667 1.964 3.012.687.19 3.374.19 4.06 0 1.245-.345 1.96-1.44 1.965-3.012l.003-.955 6.96-.04 6.96-.041 1.5-.655c2.372-1.037 2.14-1.096 2.14.547v1.404l-.895.656c-1.206.881-3.168 2.937-4.003 4.192-1.63 2.45-2.491 5.11-2.743 8.471l-.094 1.245h-9.744c-9.585 0-9.75.005-10.006.286-.356.393-.331 1.08.054 1.464l.313.312 9.826.04 9.826.039.378 1.437c1.212 4.609 4.569 8.67 8.852 10.708 6.233 2.967 13.578 1.817 18.57-2.905 5.069-4.797 6.58-12.036 3.86-18.493-.75-1.784-1.17-2.337-1.811-2.39-.62-.053-1.11.344-1.11.9 0 .197.218.79.483 1.316 2.144 4.258 2.195 8.949.14 13.034-.786 1.562-1.459 2.486-2.761 3.79-1.28 1.281-2.314 2.028-3.855 2.783-5.011 2.454-10.971 1.79-15.365-1.713-3.8-3.03-5.857-7.905-5.334-12.65 1.034-9.379 10.42-15.267 19.286-12.097 1.787.639 3.027 1.367 4.737 2.784.922.764 1.174.821 1.722.392.29-.227.377-.42.377-.84 0-.486-.088-.62-.821-1.248C62.74 31.08 56.455 29.9 50.81 31.93c-.56.201-1.057.366-1.107.366-.05 0-.09-.549-.09-1.22v-1.219l.767-.698c.47-.428.898-.987 1.106-1.447.338-.745.34-.787.382-6.56.047-6.551.018-6.797-.945-8.01a5.151 5.151 0 00-1.32-1.115l-.775-.427-4.23-.043-4.23-.044-.07-2.659c-.057-2.19-.123-2.824-.372-3.594-.804-2.483-2.932-4.44-5.48-5.039-1.268-.297-15.893-.292-17.13.007zm16.888 2.139c1.978.576 3.392 2.11 3.827 4.155.088.414.16 1.71.16 2.88v2.127h-2.117l-.048-2.383c-.043-2.16-.079-2.446-.383-3.062-.185-.374-.554-.845-.82-1.048-.915-.694-1.29-.749-5.218-.755-3.369-.006-3.686.015-3.99.26-.239.192-.33.413-.33.8 0 .387.091.608.33.8.303.245.624.267 3.894.267h3.565l.417.416.417.416v4.289h-15.99V9.456c0-3.015.02-3.038 2.658-3.044 1.674-.005 1.912-.036 2.248-.3a.959.959 0 000-1.544c-.34-.267-.569-.295-2.399-.295-1.893 0-2.07.024-2.769.37-1.506.748-1.88 1.698-1.88 4.774v2.11h-2.172l.062-2.595c.052-2.139.111-2.713.338-3.261.655-1.585 1.873-2.74 3.414-3.238.804-.26 1.327-.278 8.434-.285 6.517-.007 7.685.023 8.352.218zM48.79 14.017c.215.156.52.545.678.863.274.549.288.851.288 6.014 0 5.823-.021 6.018-.731 6.658-.187.168-1.606.824-3.154 1.458l-2.814 1.151H29.911l-.003-1.315c-.004-1.513-.253-2.236-.98-2.846-.642-.537-1.283-.674-3.158-.67-1.29 0-1.763.058-2.213.264-1.21.557-1.641 1.419-1.641 3.283v1.284H8.752L5.947 29.01c-1.543-.634-2.959-1.29-3.146-1.458-.71-.641-.73-.83-.73-6.738v-5.517l.338-.556c.186-.305.555-.671.82-.812.46-.245 1.523-.256 22.827-.227 22.094.03 22.348.034 22.734.315zM27.493 27.606c.26.139.276.328.276 3.267 0 3.666.138 3.413-1.856 3.413-1.992 0-1.856.25-1.856-3.39 0-2.218.049-3.144.172-3.267.214-.214 2.87-.233 3.264-.023zm26.546 7.453c-1.365.29-2.214.601-3.553 1.305-5.906 3.102-8.358 10.27-5.592 16.347 2.643 5.809 9.416 8.753 15.499 6.737 1.84-.61 3.212-1.436 4.672-2.816 2.703-2.554 3.985-5.512 3.987-9.2 0-2.52-.787-5.107-2.161-7.097-1.645-2.382-4.266-4.232-7.166-5.06-1.357-.387-4.34-.5-5.686-.215zm4.54 2.155c4.82.985 8.334 5.289 8.333 10.206 0 1.86-.292 3.1-1.128 4.789-.55 1.11-.885 1.569-1.888 2.575-2.376 2.383-5.3 3.438-8.599 3.102-7.472-.76-11.713-8.985-8.035-15.587 1.049-1.883 3.48-3.951 5.5-4.677 1.793-.646 3.923-.795 5.816-.408z" fill="#121212"/><path d="M9.268 43.915c-.422-.489-.434-.8-.049-1.288l.296-.375h3.323c3.148 0 3.336.015 3.583.286.356.393.331 1.081-.054 1.464-.304.303-.408.313-3.534.313h-3.22l-.345-.4zM12.207 19.209c-.538-.536-.308-1.476.428-1.75.118-.043 6.167-.068 13.441-.054 12.788.025 13.238.035 13.528.297.392.353.4 1.123.015 1.507-.281.28-.476.284-13.706.284s-13.425-.004-13.706-.284zM47.374 48.201c-.438-.41-.43-1.027.02-1.475.62-.618 2.151-.425 2.49.313.234.514.196.735-.193 1.122-.485.483-1.82.506-2.317.04zM55.658 56.42c-.446-.516-.465-1.589-.038-2.13.37-.47 1.135-.513 1.56-.09.392.39.406 1.813.023 2.284-.382.469-1.11.44-1.545-.063zM63.177 48.226c-.426-.423-.381-1.185.09-1.554.542-.425 1.62-.406 2.137.037.49.42.515 1.176.05 1.551-.458.37-1.893.349-2.277-.034zM55.989 40.956c-.741-.336-.935-1.862-.315-2.48.436-.434 1.023-.45 1.461-.04.273.255.33.456.33 1.145 0 .697-.058.892-.35 1.184-.389.387-.611.425-1.126.191zM55.324 44.405c0-1.205.042-1.457.296-1.778.37-.47 1.135-.514 1.56-.09.264.262.285.474.285 2.8 0 2.386-.015 2.532-.31 2.844-.173.184-.478.33-.69.33-.521 0-3.012-1.084-3.318-1.445-.34-.399-.315-.958.06-1.356.36-.382.779-.414 1.496-.115.282.117.537.213.567.213.03 0 .054-.631.054-1.403z" fill="#E27F38"/></symbol></svg>