<svg width="261" height="259" viewBox="0 0 261 259" fill="none" xmlns="http://www.w3.org/2000/svg">
<path fill-rule="evenodd" clip-rule="evenodd" d="M-5.5 11C-2.46243 11 0 8.53757 0 5.5C0 2.46243 -2.46243 0 -5.5 0C-8.53757 0 -11 2.46243 -11 5.5C-11 8.53757 -8.53757 11 -5.5 11ZM-5.5 42C-2.46243 42 0 39.5376 0 36.5C0 33.4624 -2.46243 31 -5.5 31C-8.53757 31 -11 33.4624 -11 36.5C-11 39.5376 -8.53757 42 -5.5 42ZM0 67.5C0 70.5376 -2.46243 73 -5.5 73C-8.53757 73 -11 70.5376 -11 67.5C-11 64.4624 -8.53757 62 -5.5 62C-2.46243 62 0 64.4624 0 67.5ZM-5.5 104C-2.46243 104 0 101.538 0 98.5C0 95.4624 -2.46243 93 -5.5 93C-8.53757 93 -11 95.4624 -11 98.5C-11 101.538 -8.53757 104 -5.5 104ZM0 129.5C0 132.538 -2.46243 135 -5.5 135C-8.53757 135 -11 132.538 -11 129.5C-11 126.462 -8.53757 124 -5.5 124C-2.46243 124 0 126.462 0 129.5ZM-5.5 166C-2.46243 166 0 163.538 0 160.5C0 157.462 -2.46243 155 -5.5 155C-8.53757 155 -11 157.462 -11 160.5C-11 163.538 -8.53757 166 -5.5 166ZM0 191.5C0 194.538 -2.46243 197 -5.5 197C-8.53757 197 -11 194.538 -11 191.5C-11 188.462 -8.53757 186 -5.5 186C-2.46243 186 0 188.462 0 191.5ZM-5.5 228C-2.46243 228 0 225.538 0 222.5C0 219.462 -2.46243 217 -5.5 217C-8.53757 217 -11 219.462 -11 222.5C-11 225.538 -8.53757 228 -5.5 228ZM0 253.5C0 256.538 -2.46243 259 -5.5 259C-8.53757 259 -11 256.538 -11 253.5C-11 250.462 -8.53757 248 -5.5 248C-2.46243 248 0 250.462 0 253.5ZM23.5 11C26.5376 11 29 8.53757 29 5.5C29 2.46243 26.5376 0 23.5 0C20.4624 0 18 2.46243 18 5.5C18 8.53757 20.4624 11 23.5 11ZM29 36.5C29 39.5376 26.5376 42 23.5 42C20.4624 42 18 39.5376 18 36.5C18 33.4624 20.4624 31 23.5 31C26.5376 31 29 33.4624 29 36.5ZM23.5 73C26.5376 73 29 70.5376 29 67.5C29 64.4624 26.5376 62 23.5 62C20.4624 62 18 64.4624 18 67.5C18 70.5376 20.4624 73 23.5 73ZM29 98.5C29 101.538 26.5376 104 23.5 104C20.4624 104 18 101.538 18 98.5C18 95.4624 20.4624 93 23.5 93C26.5376 93 29 95.4624 29 98.5ZM23.5 135C26.5376 135 29 132.538 29 129.5C29 126.462 26.5376 124 23.5 124C20.4624 124 18 126.462 18 129.5C18 132.538 20.4624 135 23.5 135ZM29 160.5C29 163.538 26.5376 166 23.5 166C20.4624 166 18 163.538 18 160.5C18 157.462 20.4624 155 23.5 155C26.5376 155 29 157.462 29 160.5ZM23.5 197C26.5376 197 29 194.538 29 191.5C29 188.462 26.5376 186 23.5 186C20.4624 186 18 188.462 18 191.5C18 194.538 20.4624 197 23.5 197ZM29 222.5C29 225.538 26.5376 228 23.5 228C20.4624 228 18 225.538 18 222.5C18 219.462 20.4624 217 23.5 217C26.5376 217 29 219.462 29 222.5ZM23.5 259C26.5376 259 29 256.538 29 253.5C29 250.462 26.5376 248 23.5 248C20.4624 248 18 250.462 18 253.5C18 256.538 20.4624 259 23.5 259ZM58 5.5C58 8.53757 55.5376 11 52.5 11C49.4624 11 47 8.53757 47 5.5C47 2.46243 49.4624 0 52.5 0C55.5376 0 58 2.46243 58 5.5ZM52.5 42C55.5376 42 58 39.5376 58 36.5C58 33.4624 55.5376 31 52.5 31C49.4624 31 47 33.4624 47 36.5C47 39.5376 49.4624 42 52.5 42ZM58 67.5C58 70.5376 55.5376 73 52.5 73C49.4624 73 47 70.5376 47 67.5C47 64.4624 49.4624 62 52.5 62C55.5376 62 58 64.4624 58 67.5ZM52.5 104C55.5376 104 58 101.538 58 98.5C58 95.4624 55.5376 93 52.5 93C49.4624 93 47 95.4624 47 98.5C47 101.538 49.4624 104 52.5 104ZM58 129.5C58 132.538 55.5376 135 52.5 135C49.4624 135 47 132.538 47 129.5C47 126.462 49.4624 124 52.5 124C55.5376 124 58 126.462 58 129.5ZM52.5 166C55.5376 166 58 163.538 58 160.5C58 157.462 55.5376 155 52.5 155C49.4624 155 47 157.462 47 160.5C47 163.538 49.4624 166 52.5 166ZM58 191.5C58 194.538 55.5376 197 52.5 197C49.4624 197 47 194.538 47 191.5C47 188.462 49.4624 186 52.5 186C55.5376 186 58 188.462 58 191.5ZM52.5 228C55.5376 228 58 225.538 58 222.5C58 219.462 55.5376 217 52.5 217C49.4624 217 47 219.462 47 222.5C47 225.538 49.4624 228 52.5 228ZM58 253.5C58 256.538 55.5376 259 52.5 259C49.4624 259 47 256.538 47 253.5C47 250.462 49.4624 248 52.5 248C55.5376 248 58 250.462 58 253.5ZM81.5 11C84.5376 11 87 8.53757 87 5.5C87 2.46243 84.5376 0 81.5 0C78.4624 0 76 2.46243 76 5.5C76 8.53757 78.4624 11 81.5 11ZM87 36.5C87 39.5376 84.5376 42 81.5 42C78.4624 42 76 39.5376 76 36.5C76 33.4624 78.4624 31 81.5 31C84.5376 31 87 33.4624 87 36.5ZM81.5 73C84.5376 73 87 70.5376 87 67.5C87 64.4624 84.5376 62 81.5 62C78.4624 62 76 64.4624 76 67.5C76 70.5376 78.4624 73 81.5 73ZM87 98.5C87 101.538 84.5376 104 81.5 104C78.4624 104 76 101.538 76 98.5C76 95.4624 78.4624 93 81.5 93C84.5376 93 87 95.4624 87 98.5ZM81.5 135C84.5376 135 87 132.538 87 129.5C87 126.462 84.5376 124 81.5 124C78.4624 124 76 126.462 76 129.5C76 132.538 78.4624 135 81.5 135ZM87 160.5C87 163.538 84.5376 166 81.5 166C78.4624 166 76 163.538 76 160.5C76 157.462 78.4624 155 81.5 155C84.5376 155 87 157.462 87 160.5ZM81.5 197C84.5376 197 87 194.538 87 191.5C87 188.462 84.5376 186 81.5 186C78.4624 186 76 188.462 76 191.5C76 194.538 78.4624 197 81.5 197ZM87 222.5C87 225.538 84.5376 228 81.5 228C78.4624 228 76 225.538 76 222.5C76 219.462 78.4624 217 81.5 217C84.5376 217 87 219.462 87 222.5ZM81.5 259C84.5376 259 87 256.538 87 253.5C87 250.462 84.5376 248 81.5 248C78.4624 248 76 250.462 76 253.5C76 256.538 78.4624 259 81.5 259ZM116 5.5C116 8.53757 113.538 11 110.5 11C107.462 11 105 8.53757 105 5.5C105 2.46243 107.462 0 110.5 0C113.538 0 116 2.46243 116 5.5ZM110.5 42C113.538 42 116 39.5376 116 36.5C116 33.4624 113.538 31 110.5 31C107.462 31 105 33.4624 105 36.5C105 39.5376 107.462 42 110.5 42ZM116 67.5C116 70.5376 113.538 73 110.5 73C107.462 73 105 70.5376 105 67.5C105 64.4624 107.462 62 110.5 62C113.538 62 116 64.4624 116 67.5ZM110.5 104C113.538 104 116 101.538 116 98.5C116 95.4624 113.538 93 110.5 93C107.462 93 105 95.4624 105 98.5C105 101.538 107.462 104 110.5 104ZM116 129.5C116 132.538 113.538 135 110.5 135C107.462 135 105 132.538 105 129.5C105 126.462 107.462 124 110.5 124C113.538 124 116 126.462 116 129.5ZM110.5 166C113.538 166 116 163.538 116 160.5C116 157.462 113.538 155 110.5 155C107.462 155 105 157.462 105 160.5C105 163.538 107.462 166 110.5 166ZM116 191.5C116 194.538 113.538 197 110.5 197C107.462 197 105 194.538 105 191.5C105 188.462 107.462 186 110.5 186C113.538 186 116 188.462 116 191.5ZM110.5 228C113.538 228 116 225.538 116 222.5C116 219.462 113.538 217 110.5 217C107.462 217 105 219.462 105 222.5C105 225.538 107.462 228 110.5 228ZM116 253.5C116 256.538 113.538 259 110.5 259C107.462 259 105 256.538 105 253.5C105 250.462 107.462 248 110.5 248C113.538 248 116 250.462 116 253.5ZM139.5 11C142.538 11 145 8.53757 145 5.5C145 2.46243 142.538 0 139.5 0C136.462 0 134 2.46243 134 5.5C134 8.53757 136.462 11 139.5 11ZM145 36.5C145 39.5376 142.538 42 139.5 42C136.462 42 134 39.5376 134 36.5C134 33.4624 136.462 31 139.5 31C142.538 31 145 33.4624 145 36.5ZM139.5 73C142.538 73 145 70.5376 145 67.5C145 64.4624 142.538 62 139.5 62C136.462 62 134 64.4624 134 67.5C134 70.5376 136.462 73 139.5 73ZM145 98.5C145 101.538 142.538 104 139.5 104C136.462 104 134 101.538 134 98.5C134 95.4624 136.462 93 139.5 93C142.538 93 145 95.4624 145 98.5ZM139.5 135C142.538 135 145 132.538 145 129.5C145 126.462 142.538 124 139.5 124C136.462 124 134 126.462 134 129.5C134 132.538 136.462 135 139.5 135ZM145 160.5C145 163.538 142.538 166 139.5 166C136.462 166 134 163.538 134 160.5C134 157.462 136.462 155 139.5 155C142.538 155 145 157.462 145 160.5ZM139.5 197C142.538 197 145 194.538 145 191.5C145 188.462 142.538 186 139.5 186C136.462 186 134 188.462 134 191.5C134 194.538 136.462 197 139.5 197ZM145 222.5C145 225.538 142.538 228 139.5 228C136.462 228 134 225.538 134 222.5C134 219.462 136.462 217 139.5 217C142.538 217 145 219.462 145 222.5ZM139.5 259C142.538 259 145 256.538 145 253.5C145 250.462 142.538 248 139.5 248C136.462 248 134 250.462 134 253.5C134 256.538 136.462 259 139.5 259ZM174 5.5C174 8.53757 171.538 11 168.5 11C165.462 11 163 8.53757 163 5.5C163 2.46243 165.462 0 168.5 0C171.538 0 174 2.46243 174 5.5ZM168.5 42C171.538 42 174 39.5376 174 36.5C174 33.4624 171.538 31 168.5 31C165.462 31 163 33.4624 163 36.5C163 39.5376 165.462 42 168.5 42ZM174 67.5C174 70.5376 171.538 73 168.5 73C165.462 73 163 70.5376 163 67.5C163 64.4624 165.462 62 168.5 62C171.538 62 174 64.4624 174 67.5ZM168.5 104C171.538 104 174 101.538 174 98.5C174 95.4624 171.538 93 168.5 93C165.462 93 163 95.4624 163 98.5C163 101.538 165.462 104 168.5 104ZM174 129.5C174 132.538 171.538 135 168.5 135C165.462 135 163 132.538 163 129.5C163 126.462 165.462 124 168.5 124C171.538 124 174 126.462 174 129.5ZM168.5 166C171.538 166 174 163.538 174 160.5C174 157.462 171.538 155 168.5 155C165.462 155 163 157.462 163 160.5C163 163.538 165.462 166 168.5 166ZM174 191.5C174 194.538 171.538 197 168.5 197C165.462 197 163 194.538 163 191.5C163 188.462 165.462 186 168.5 186C171.538 186 174 188.462 174 191.5ZM168.5 228C171.538 228 174 225.538 174 222.5C174 219.462 171.538 217 168.5 217C165.462 217 163 219.462 163 222.5C163 225.538 165.462 228 168.5 228ZM174 253.5C174 256.538 171.538 259 168.5 259C165.462 259 163 256.538 163 253.5C163 250.462 165.462 248 168.5 248C171.538 248 174 250.462 174 253.5ZM197.5 11C200.538 11 203 8.53757 203 5.5C203 2.46243 200.538 0 197.5 0C194.462 0 192 2.46243 192 5.5C192 8.53757 194.462 11 197.5 11ZM203 36.5C203 39.5376 200.538 42 197.5 42C194.462 42 192 39.5376 192 36.5C192 33.4624 194.462 31 197.5 31C200.538 31 203 33.4624 203 36.5ZM197.5 73C200.538 73 203 70.5376 203 67.5C203 64.4624 200.538 62 197.5 62C194.462 62 192 64.4624 192 67.5C192 70.5376 194.462 73 197.5 73ZM203 98.5C203 101.538 200.538 104 197.5 104C194.462 104 192 101.538 192 98.5C192 95.4624 194.462 93 197.5 93C200.538 93 203 95.4624 203 98.5ZM197.5 135C200.538 135 203 132.538 203 129.5C203 126.462 200.538 124 197.5 124C194.462 124 192 126.462 192 129.5C192 132.538 194.462 135 197.5 135ZM203 160.5C203 163.538 200.538 166 197.5 166C194.462 166 192 163.538 192 160.5C192 157.462 194.462 155 197.5 155C200.538 155 203 157.462 203 160.5ZM197.5 197C200.538 197 203 194.538 203 191.5C203 188.462 200.538 186 197.5 186C194.462 186 192 188.462 192 191.5C192 194.538 194.462 197 197.5 197ZM203 222.5C203 225.538 200.538 228 197.5 228C194.462 228 192 225.538 192 222.5C192 219.462 194.462 217 197.5 217C200.538 217 203 219.462 203 222.5ZM197.5 259C200.538 259 203 256.538 203 253.5C203 250.462 200.538 248 197.5 248C194.462 248 192 250.462 192 253.5C192 256.538 194.462 259 197.5 259ZM232 5.5C232 8.53757 229.538 11 226.5 11C223.462 11 221 8.53757 221 5.5C221 2.46243 223.462 0 226.5 0C229.538 0 232 2.46243 232 5.5ZM226.5 42C229.538 42 232 39.5376 232 36.5C232 33.4624 229.538 31 226.5 31C223.462 31 221 33.4624 221 36.5C221 39.5376 223.462 42 226.5 42ZM232 67.5C232 70.5376 229.538 73 226.5 73C223.462 73 221 70.5376 221 67.5C221 64.4624 223.462 62 226.5 62C229.538 62 232 64.4624 232 67.5ZM226.5 104C229.538 104 232 101.538 232 98.5C232 95.4624 229.538 93 226.5 93C223.462 93 221 95.4624 221 98.5C221 101.538 223.462 104 226.5 104ZM232 129.5C232 132.538 229.538 135 226.5 135C223.462 135 221 132.538 221 129.5C221 126.462 223.462 124 226.5 124C229.538 124 232 126.462 232 129.5ZM226.5 166C229.538 166 232 163.538 232 160.5C232 157.462 229.538 155 226.5 155C223.462 155 221 157.462 221 160.5C221 163.538 223.462 166 226.5 166ZM232 191.5C232 194.538 229.538 197 226.5 197C223.462 197 221 194.538 221 191.5C221 188.462 223.462 186 226.5 186C229.538 186 232 188.462 232 191.5ZM226.5 228C229.538 228 232 225.538 232 222.5C232 219.462 229.538 217 226.5 217C223.462 217 221 219.462 221 222.5C221 225.538 223.462 228 226.5 228ZM232 253.5C232 256.538 229.538 259 226.5 259C223.462 259 221 256.538 221 253.5C221 250.462 223.462 248 226.5 248C229.538 248 232 250.462 232 253.5ZM255.5 11C258.538 11 261 8.53757 261 5.5C261 2.46243 258.538 0 255.5 0C252.462 0 250 2.46243 250 5.5C250 8.53757 252.462 11 255.5 11ZM261 36.5C261 39.5376 258.538 42 255.5 42C252.462 42 250 39.5376 250 36.5C250 33.4624 252.462 31 255.5 31C258.538 31 261 33.4624 261 36.5ZM255.5 73C258.538 73 261 70.5376 261 67.5C261 64.4624 258.538 62 255.5 62C252.462 62 250 64.4624 250 67.5C250 70.5376 252.462 73 255.5 73ZM261 98.5C261 101.538 258.538 104 255.5 104C252.462 104 250 101.538 250 98.5C250 95.4624 252.462 93 255.5 93C258.538 93 261 95.4624 261 98.5ZM255.5 135C258.538 135 261 132.538 261 129.5C261 126.462 258.538 124 255.5 124C252.462 124 250 126.462 250 129.5C250 132.538 252.462 135 255.5 135ZM261 160.5C261 163.538 258.538 166 255.5 166C252.462 166 250 163.538 250 160.5C250 157.462 252.462 155 255.5 155C258.538 155 261 157.462 261 160.5ZM255.5 197C258.538 197 261 194.538 261 191.5C261 188.462 258.538 186 255.5 186C252.462 186 250 188.462 250 191.5C250 194.538 252.462 197 255.5 197ZM261 222.5C261 225.538 258.538 228 255.5 228C252.462 228 250 225.538 250 222.5C250 219.462 252.462 217 255.5 217C258.538 217 261 219.462 261 222.5ZM255.5 259C258.538 259 261 256.538 261 253.5C261 250.462 258.538 248 255.5 248C252.462 248 250 250.462 250 253.5C250 256.538 252.462 259 255.5 259Z" fill="#FFD166"/>
</svg>
